<svg width="17" height="16" viewBox="0 0 17 16" fill="none" xmlns="http://www.w3.org/2000/svg">
<path d="M1.16313 0.495673C1.26473 0.392415 1.38542 0.31049 1.5183 0.254592C1.65118 0.198694 1.79364 0.169922 1.9375 0.169922C2.08137 0.169922 2.22382 0.198694 2.3567 0.254592C2.48958 0.31049 2.61028 0.392415 2.71188 0.495673L8.5 6.36567L14.2881 0.495673C14.3898 0.392582 14.5105 0.310804 14.6434 0.255012C14.7763 0.199219 14.9187 0.170502 15.0625 0.170502C15.2063 0.170502 15.3487 0.199219 15.4816 0.255012C15.6145 0.310804 15.7352 0.392582 15.8369 0.495673C15.9386 0.598765 16.0192 0.721153 16.0743 0.855849C16.1293 0.990545 16.1576 1.13491 16.1576 1.28071C16.1576 1.4265 16.1293 1.57087 16.0743 1.70556C16.0192 1.84026 15.9386 1.96265 15.8369 2.06574L10.0466 7.93351L15.8369 13.8013C15.9386 13.9044 16.0192 14.0268 16.0743 14.1615C16.1293 14.2962 16.1576 14.4405 16.1576 14.5863C16.1576 14.7321 16.1293 14.8765 16.0743 15.0112C16.0192 15.1459 15.9386 15.2683 15.8369 15.3714C15.7352 15.4744 15.6145 15.5562 15.4816 15.612C15.3487 15.6678 15.2063 15.6965 15.0625 15.6965C14.9187 15.6965 14.7763 15.6678 14.6434 15.612C14.5105 15.5562 14.3898 15.4744 14.2881 15.3714L8.5 9.50136L2.71188 15.3714C2.61018 15.4744 2.48946 15.5562 2.35659 15.612C2.22372 15.6678 2.08132 15.6965 1.9375 15.6965C1.79369 15.6965 1.65128 15.6678 1.51841 15.612C1.38554 15.5562 1.26482 15.4744 1.16313 15.3714C1.06143 15.2683 0.980767 15.1459 0.925732 15.0112C0.870696 14.8765 0.84237 14.7321 0.84237 14.5863C0.84237 14.4405 0.870696 14.2962 0.925732 14.1615C0.980767 14.0268 1.06143 13.9044 1.16313 13.8013L6.95344 7.93351L1.16313 2.06574C1.06127 1.96274 0.980457 1.84038 0.925317 1.70567C0.870178 1.57096 0.841797 1.42655 0.841797 1.28071C0.841797 1.13486 0.870178 0.990446 0.925317 0.855738C0.980457 0.721029 1.06127 0.598671 1.16313 0.495673Z" fill="black"/>
</svg>
