<svg width="622" height="83" viewBox="0 0 622 83" fill="none" xmlns="http://www.w3.org/2000/svg">
<path d="M22.415 25.745C22.415 27.74 19.72 28.825 15.03 28.825C10.34 28.825 7.645 27.74 7.645 25.745C7.645 23.715 10.34 22.665 15.03 22.665C19.72 22.665 22.415 23.715 22.415 25.745ZM29.415 15.385V12.48H25.11C25.845 8.875 25.845 6.11 25.845 3.765V1.315H4.39V4.255H22.31C22.31 6.495 22.24 9.085 21.505 12.48H0.785V15.385H13.245V19.83C7.47 20.18 4.005 22.245 4.005 25.745C4.005 29.525 8.205 31.73 15.03 31.73C21.89 31.73 26.055 29.525 26.055 25.745C26.055 22.245 22.625 20.18 16.85 19.83V15.385H29.415ZM39.9823 22.77H54.5073V28.44H39.9823V22.77ZM36.4473 31.31H58.0423V19.9H36.4473V31.31ZM57.2373 13.145C58.0423 9.365 58.0423 6.565 58.0423 4.08V1.63H36.5873V4.57H54.5073C54.5073 6.95 54.4373 9.61 53.6323 13.145H32.9823V16.085H61.6123V13.145H57.2373ZM67.8745 13.32C73.4045 12.725 77.7445 10.45 79.4595 7.195C81.1395 10.45 85.4445 12.725 91.0445 13.32L92.3045 10.52C86.4245 9.925 82.3295 7.405 81.8745 4.535H91.1495V1.63H67.8045V4.535H77.0095C76.5545 7.405 72.4595 9.925 66.5795 10.52L67.8745 13.32ZM79.3895 28.86C74.7695 28.86 72.1795 27.845 72.1795 25.92C72.1795 23.96 74.7695 22.945 79.3895 22.945C84.0095 22.945 86.6345 23.96 86.6345 25.92C86.6345 27.845 84.0095 28.86 79.3895 28.86ZM79.3895 20.11C72.6345 20.11 68.5045 22.245 68.5045 25.92C68.5045 29.595 72.6345 31.695 79.3895 31.695C86.1795 31.695 90.2745 29.595 90.2745 25.92C90.2745 22.245 86.1795 20.11 79.3895 20.11ZM65.1445 14.93V17.835H93.7395V14.93H65.1445ZM111.657 3.975C116.277 3.975 119.182 5.27 119.182 7.475C119.182 9.715 116.277 11.01 111.657 11.01C107.002 11.01 104.097 9.715 104.097 7.475C104.097 5.27 107.002 3.975 111.657 3.975ZM111.657 13.915C118.482 13.915 122.927 11.5 122.927 7.475C122.927 3.485 118.482 1.07 111.657 1.07C104.832 1.07 100.387 3.485 100.387 7.475C100.387 11.5 104.832 13.915 111.657 13.915ZM104.587 21.895H100.947V31.1H122.752V28.16H104.587V21.895ZM97.3418 16.47V19.41H125.937V16.47H97.3418ZM149.965 21.335H142.125V13.6H149.965V21.335ZM149.965 10.73H142.125V2.68H138.52V24.24H153.535V2.68H149.965V10.73ZM166.835 12.235H161.9V0.0899988H158.295V31.73H161.9V15.245H166.835V12.235ZM185.698 25.01V19.62H195.568V16.715H176.633V12.305H194.868V2.295H173.028V5.2H191.298V9.435H173.098V19.62H182.093V25.01H169.633V27.985H198.263V25.01H185.698ZM217.391 21.615C215.256 21.615 213.751 19.9 213.751 17.275C213.751 14.65 215.256 12.9 217.391 12.9C219.526 12.9 221.031 14.65 221.031 17.275C221.031 19.9 219.526 21.615 217.391 21.615ZM217.391 9.925C213.401 9.925 210.531 12.9 210.531 17.275C210.531 21.615 213.401 24.625 217.391 24.625C221.381 24.625 224.251 21.615 224.251 17.275C224.251 12.9 221.381 9.925 217.391 9.925ZM219.176 1H215.606V5.235H209.621V8.14H225.091V5.235H219.176V1ZM233.176 0.0899988V13.18H229.816V0.754999H226.456V30.225H229.816V16.155H233.176V31.695H236.606V0.0899988H233.176ZM264.464 7.195V10.45H256.729V13.25H264.464V16.12H268.069V0.0899988H264.464V4.395H257.919C258.094 3.485 258.164 2.505 258.164 1.49H244.024V4.395H254.174C253.684 8.805 249.799 12.27 242.309 13.88L243.569 16.82C250.534 15.245 255.189 12.025 257.149 7.195H264.464ZM251.164 28.51V25.605H268.069V17.415H247.489V20.285H264.464V22.91H247.559V31.415H268.944V28.51H251.164ZM281.786 21.615C279.651 21.615 278.146 19.9 278.146 17.275C278.146 14.65 279.651 12.9 281.786 12.9C283.921 12.9 285.426 14.65 285.426 17.275C285.426 19.9 283.921 21.615 281.786 21.615ZM281.786 9.925C277.796 9.925 274.926 12.9 274.926 17.275C274.926 21.615 277.796 24.625 281.786 24.625C285.776 24.625 288.646 21.615 288.646 17.275C288.646 12.9 285.776 9.925 281.786 9.925ZM283.571 1H280.001V5.235H274.016V8.14H289.486V5.235H283.571V1ZM297.571 0.0899988V13.18H294.211V0.754999H290.851V30.225H294.211V16.155H297.571V31.695H301.001V0.0899988H297.571ZM314.683 21.475C311.918 21.475 310.028 18.5 310.028 13.53C310.028 8.63 311.918 5.655 314.683 5.655C317.413 5.655 319.338 8.63 319.338 13.53C319.338 18.5 317.413 21.475 314.683 21.475ZM314.683 2.4C309.958 2.4 306.563 6.74 306.563 13.53C306.563 20.39 309.958 24.695 314.683 24.695C319.408 24.695 322.803 20.39 322.803 13.53C322.803 6.74 319.408 2.4 314.683 2.4ZM335.508 10.765V7.79H330.748V0.0899988H327.143V31.73H330.748V20.11H335.508V17.135H330.748V10.765H335.508ZM355.932 6.495H361.147V3.52H346.867V6.495H352.432V8.77C352.432 14.405 350.332 20.11 345.852 22.91L348.022 25.57C351.067 23.645 353.097 20.25 354.217 16.26C355.337 19.935 357.297 23.05 360.272 24.8L362.372 22.175C357.962 19.62 355.932 14.16 355.932 8.77V6.495ZM363.492 11.185H358.837V14.125H363.492V30.155H366.887V0.684999H363.492V11.185ZM369.862 0.0549992V31.66H373.292V0.0549992H369.862ZM390.649 13.775H383.194V5.27H390.649V13.775ZM394.184 2.4H379.624V16.68H394.184V2.4ZM395.234 19.55H391.629V20.425C391.629 24.45 387.499 27.845 381.374 28.755L382.774 31.555C387.639 30.75 391.524 28.475 393.449 25.22C395.339 28.475 399.224 30.75 404.089 31.555L405.489 28.755C399.364 27.845 395.234 24.45 395.234 20.425V19.55ZM403.214 8.385V0.0899988H399.609V21.02H403.214V11.36H407.694V8.385H403.214ZM433.101 0.0549992V31.765H436.741V0.0549992H433.101ZM419.906 2.4C415.216 2.4 411.786 6.74 411.786 13.53C411.786 20.39 415.216 24.695 419.906 24.695C424.631 24.695 428.061 20.39 428.061 13.53C428.061 6.74 424.631 2.4 419.906 2.4ZM419.906 5.655C422.671 5.655 424.596 8.63 424.596 13.53C424.596 18.5 422.671 21.475 419.906 21.475C417.176 21.475 415.251 18.5 415.251 13.53C415.251 8.63 417.176 5.655 419.906 5.655ZM445.663 18.43C450.773 17.415 455.183 14.44 457.213 10.38C459.278 14.405 463.723 17.31 468.938 18.255L470.408 15.42C464.213 14.44 459.208 10.24 459.103 5.585H469.148V2.68H445.278V5.585H455.323C455.218 10.24 450.248 14.545 444.158 15.56L445.663 18.43ZM464.108 24.975V18.115H460.468V24.975H453.993V18.115H450.388V24.975H442.933V27.915H471.563V24.975H464.108ZM478.001 20.775H480.696L481.256 6.775L481.396 2.61H477.336L477.441 6.775L478.001 20.775ZM479.331 29.455C480.871 29.455 482.061 28.3 482.061 26.655C482.061 24.975 480.871 23.785 479.331 23.785C477.826 23.785 476.671 24.975 476.671 26.655C476.671 28.3 477.826 29.455 479.331 29.455ZM319.454 51.055V82.765H323.094V51.055H319.454ZM306.259 53.4C301.569 53.4 298.139 57.74 298.139 64.53C298.139 71.39 301.569 75.695 306.259 75.695C310.984 75.695 314.414 71.39 314.414 64.53C314.414 57.74 310.984 53.4 306.259 53.4ZM306.259 56.655C309.024 56.655 310.949 59.63 310.949 64.53C310.949 69.5 309.024 72.475 306.259 72.475C303.529 72.475 301.604 69.5 301.604 64.53C301.604 59.63 303.529 56.655 306.259 56.655ZM363.187 51.09H359.547V67.4H363.187V51.09ZM356.607 64.145C351.812 62.78 349.012 59.315 348.907 55.64H355.662V52.735H338.372V55.64H345.232C345.162 59.56 342.292 63.305 337.392 64.775L339.107 67.61C342.957 66.385 345.722 63.83 347.122 60.61C348.557 63.515 351.252 65.86 354.997 66.91L356.607 64.145ZM346.072 79.615V76.815H363.187V68.835H342.467V71.565H359.617V74.225H342.537V82.415H364.132V79.615H346.072ZM390.73 61.03H376.485V55.36H390.73V61.03ZM394.265 52.49H372.95V63.9H394.265V52.49ZM376.415 72.965H372.81V82.1H394.79V79.16H376.415V72.965ZM369.31 67.015V69.92H382.12V75.835H385.725V69.92H397.975V67.015H369.31ZM405.487 66.89H408.127V53.72H405.997C405.007 54.44 404.167 54.83 402.607 55.1V56.78H405.487V66.89ZM428.302 54.275C433.202 54.275 435.827 55.22 435.827 57.04C435.827 58.825 433.202 59.77 428.302 59.77C423.402 59.77 420.777 58.825 420.777 57.04C420.777 55.22 423.402 54.275 428.302 54.275ZM428.302 62.465C435.372 62.465 439.572 60.54 439.572 57.04C439.572 53.505 435.372 51.58 428.302 51.58C421.197 51.58 417.032 53.505 417.032 57.04C417.032 60.54 421.197 62.465 428.302 62.465ZM421.022 77.025H439.012V69.465H417.382V72.195H435.477V74.47H417.452V82.415H439.922V79.65H421.022V77.025ZM413.987 64.32V67.19H442.617V64.32H413.987ZM455.866 54.415V57.355H467.136C466.506 64.635 462.586 70.2 454.291 74.19L456.216 77.06C467.066 71.81 470.846 63.83 470.846 54.415H455.866ZM476.551 51.09V82.695H480.156V51.09H476.551ZM491.143 57.005H502.238V54.065H487.538V74.96H490.128C495.833 74.96 500.103 74.785 504.898 73.91L504.513 70.935C500.103 71.705 496.253 71.915 491.143 71.95V57.005ZM515.678 63.235H510.743V51.055H507.138V82.73H510.743V66.21H515.678V63.235ZM537.62 64.075C533.035 64.845 529.08 65.02 523.655 65.02V61.52H534.47V52.56H520.015V55.5H530.935V58.79H520.085V67.96H522.745C528.8 67.96 533.07 67.82 538.04 67.015L537.62 64.075ZM540.945 79.405H527.4V76.115H540.945V79.405ZM540.945 73.28H527.4V70.025H523.795V82.31H544.515V70.025H540.945V73.28ZM540.91 51.09V68.555H544.515V51.09H540.91ZM556.098 54.17H552.528V74.715H555.223C560.123 74.715 565.233 74.33 570.658 73.21L570.273 70.2C565.303 71.215 560.578 71.6 556.098 71.635V54.17ZM573.178 51.09V82.695H576.783V51.09H573.178ZM587.735 57.005H598.83V54.065H584.13V74.96H586.72C592.425 74.96 596.695 74.785 601.49 73.91L601.105 70.935C596.695 71.705 592.845 71.915 587.735 71.95V57.005ZM612.27 63.235H607.335V51.055H603.73V82.73H607.335V66.21H612.27V63.235ZM618.497 80.455C620.002 80.455 621.192 79.3 621.192 77.655C621.192 75.975 620.002 74.785 618.497 74.785C616.992 74.785 615.802 75.975 615.802 77.655C615.802 79.3 616.992 80.455 618.497 80.455Z" fill="black"/>
<path d="M12.755 80.49C16.115 80.49 18.88 79.16 21.015 76.675L18.285 73.455C16.885 74.96 15.17 76.01 12.93 76.01C8.835 76.01 6.175 72.615 6.175 66.98C6.175 61.415 9.115 58.055 13.035 58.055C14.995 58.055 16.5 58.965 17.83 60.225L20.525 56.935C18.845 55.185 16.22 53.61 12.93 53.61C6.385 53.61 0.89 58.615 0.89 67.155C0.89 75.8 6.21 80.49 12.755 80.49ZM24.7679 80H29.9129V66.525C31.3479 65.09 32.3629 64.32 33.9729 64.32C35.8979 64.32 36.7379 65.37 36.7379 68.415V80H41.8829V67.785C41.8829 62.85 40.0629 59.91 35.8279 59.91C33.1679 59.91 31.2429 61.31 29.6679 62.78L29.9129 59.105V52.07H24.7679V80ZM51.9856 80.49C54.2256 80.49 56.1856 79.37 57.9006 77.9H58.0406L58.3906 80H62.5906V68.555C62.5906 62.885 60.0356 59.91 55.0656 59.91C51.9856 59.91 49.1856 61.065 46.8756 62.5L48.7306 65.895C50.5506 64.845 52.3006 64.04 54.1206 64.04C56.5356 64.04 57.3756 65.51 57.4806 67.435C49.5706 68.275 46.1756 70.48 46.1756 74.68C46.1756 78.005 48.4856 80.49 51.9856 80.49ZM53.6656 76.465C52.1606 76.465 51.0756 75.8 51.0756 74.26C51.0756 72.51 52.6856 71.18 57.4806 70.585V74.54C56.2206 75.765 55.1356 76.465 53.6656 76.465ZM74.3599 80.49C76.0749 80.49 77.4399 80.105 78.4899 79.755L77.6499 76.01C77.1249 76.22 76.3549 76.43 75.7249 76.43C73.9749 76.43 73.0649 75.38 73.0649 73.14V64.46H77.8949V60.4H73.0649V55.115H68.7949L68.1999 60.4L65.1549 60.645V64.46H67.9199V73.14C67.9199 77.515 69.7049 80.49 74.3599 80.49ZM93.4322 80.49C97.0372 80.49 100.082 79.09 101.832 77.375V65.685H92.6272V69.92H97.2122V75.03C96.4772 75.66 95.2172 76.01 93.9922 76.01C88.8822 76.01 86.2922 72.615 86.2922 66.98C86.2922 61.415 89.3022 58.055 93.6072 58.055C95.9522 58.055 97.4222 59 98.7172 60.225L101.447 56.935C99.7672 55.22 97.1772 53.61 93.4322 53.61C86.5372 53.61 81.0072 58.615 81.0072 67.155C81.0072 75.8 86.3972 80.49 93.4322 80.49ZM107.39 80H112.57V70.795H116.035C121.6 70.795 126.045 68.135 126.045 62.22C126.045 56.095 121.635 54.065 115.895 54.065H107.39V80ZM112.57 66.7V58.195H115.51C119.08 58.195 120.97 59.21 120.97 62.22C120.97 65.195 119.255 66.7 115.685 66.7H112.57ZM135.23 80H140.41V58.405H147.76V54.065H127.95V58.405H135.23V80ZM159.995 54.1V57.775H170.74C170.075 64.915 166.505 69.955 158.28 73.91L160.695 77.55C172.14 72.02 175.465 63.97 175.465 54.1H159.995ZM180.4 50.74V82.975H185.055V50.74H180.4ZM202.237 65.825H195.902V61.24H202.237V65.825ZM206.787 53.085H202.237V57.67H195.902V53.085H191.352V69.465H206.787V53.085ZM199.612 72.16H194.992V82.45H216.937V78.775H199.612V72.16ZM215.782 59.875V50.775H211.162V74.505H215.782V63.655H220.052V59.875H215.782ZM253.099 62.15H255.514V72.58H259.889V50.775H255.514V58.44H253.099V51.335H248.829V69.78H253.099V62.15ZM248.374 65.615C244.349 64.18 242.564 61.135 242.564 57.915H247.429V54.31H242.564V51.195H238.189V54.31H233.289V57.915H238.189C238.189 61.345 236.474 64.635 232.379 66.21L234.514 69.605C237.454 68.52 239.344 66.455 240.464 63.935C241.584 66.21 243.474 68.03 246.309 69.01L248.374 65.615ZM251.104 71.075H246.484V71.6C246.484 74.89 243.194 78.425 236.229 79.3L237.874 82.905C243.089 82.17 246.834 80 248.794 77.025C250.754 80 254.464 82.17 259.644 82.905L261.359 79.3C254.394 78.425 251.104 74.89 251.104 71.6V71.075ZM281.516 71.74H276.791V72.265C276.791 75.38 273.676 78.565 266.571 79.37L268.146 82.905C273.466 82.205 277.211 80.21 279.171 77.445C281.131 80.21 284.876 82.205 290.196 82.905L291.771 79.37C284.701 78.565 281.516 75.38 281.516 72.265V71.74ZM272.906 57.88H285.471V60.295H272.906V57.88ZM281.481 66.455V63.9H290.056V51.685H285.471V54.415H272.906V51.685H268.321V63.9H276.861V66.455H264.611V70.095H293.766V66.455H281.481Z" fill="#1E70F6"/>
</svg>
