<svg width="324" height="19" viewBox="0 0 324 19" fill="none" xmlns="http://www.w3.org/2000/svg">
<path d="M0.72 17H9.12V15.1H6.24V2.26H4.5C3.66 2.8 2.68 3.14 1.3 3.4V4.86H3.94V15.1H0.72V17ZM13.3863 17.26C14.2463 17.26 14.9263 16.6 14.9263 15.66C14.9263 14.7 14.2463 14.02 13.3863 14.02C12.5263 14.02 11.8463 14.7 11.8463 15.66C11.8463 16.6 12.5263 17.26 13.3863 17.26ZM36.7555 0.479999H34.6755V9.8H36.7555V0.479999ZM32.9955 7.94C30.2555 7.16 28.6555 5.18 28.5955 3.08H32.4555V1.42H22.5755V3.08H26.4955C26.4555 5.32 24.8155 7.46 22.0155 8.3L22.9955 9.92C25.1955 9.22 26.7755 7.76 27.5755 5.92C28.3955 7.58 29.9355 8.92 32.0755 9.52L32.9955 7.94ZM26.9755 16.78V15.18H36.7555V10.62H24.9155V12.18H34.7155V13.7H24.9555V18.38H37.2955V16.78H26.9755ZM52.4939 6.16H44.3539V2.92H52.4939V6.16ZM54.5139 1.28H42.3339V7.8H54.5139V1.28ZM44.3139 12.98H42.2539V18.2H54.8139V16.52H44.3139V12.98ZM40.2539 9.58V11.24H47.5739V14.62H49.6339V11.24H56.6339V9.58H40.2539ZM66.8323 2.7C69.4723 2.7 71.1323 3.44 71.1323 4.7C71.1323 5.98 69.4723 6.72 66.8323 6.72C64.1723 6.72 62.5123 5.98 62.5123 4.7C62.5123 3.44 64.1723 2.7 66.8323 2.7ZM66.8323 8.38C70.7323 8.38 73.2723 7 73.2723 4.7C73.2723 2.42 70.7323 1.04 66.8323 1.04C62.9323 1.04 60.3923 2.42 60.3923 4.7C60.3923 7 62.9323 8.38 66.8323 8.38ZM62.7923 12.94H60.7123V18.2H73.1723V16.52H62.7923V12.94ZM58.6523 9.84V11.52H74.9923V9.84H58.6523ZM82.263 17H90.663V15.1H87.783V2.26H86.043C85.203 2.8 84.223 3.14 82.843 3.4V4.86H85.483V15.1H82.263V17ZM99.6292 1.98H97.5692V4.94C97.5692 8.42 95.6892 11.88 92.8092 13.18L94.0292 14.9C96.2092 13.84 97.8092 11.7 98.6292 9.08C99.4492 11.52 101.029 13.52 103.109 14.5L104.309 12.86C101.469 11.58 99.6292 8.26 99.6292 4.94V1.98ZM105.749 0.46V18.58H107.829V0.46H105.749ZM112.068 1.86V3.54H118.368C118.008 6.4 115.448 8.74 111.308 10L112.168 11.64C117.428 10.04 120.608 6.64 120.608 1.86H112.068ZM116.088 12.24H114.008V18.2H126.168V16.52H116.088V12.24ZM125.448 5.76V0.479999H123.388V13.56H125.448V7.46H128.028V5.76H125.448ZM135.278 2.38V4.06H141.718C141.358 8.22 139.118 11.4 134.378 13.68L135.478 15.32C141.678 12.32 143.838 7.76 143.838 2.38H135.278ZM147.098 0.479999V18.54H149.158V0.479999H147.098ZM154.297 8.54C157.417 8.14 159.837 6.7 160.797 4.7C161.777 6.7 164.217 8.14 167.357 8.54L168.117 6.9C164.737 6.5 162.357 4.82 162.197 2.98H167.497V1.32H154.157V2.98H159.417C159.257 4.82 156.917 6.5 153.517 6.9L154.297 8.54ZM156.697 13.04H154.637V18.2H167.197V16.52H156.697V13.04ZM152.637 9.64V11.3H159.957V14.7H162.017V11.3H169.017V9.64H152.637ZM179.887 17.26C182.467 17.26 184.847 15.42 184.847 12.16C184.847 8.94 182.827 7.48 180.367 7.48C179.567 7.48 178.987 7.68 178.347 8L178.687 4.22H184.147V2.26H176.687L176.247 9.26L177.367 10C178.227 9.44 178.787 9.16 179.727 9.16C181.407 9.16 182.527 10.28 182.527 12.24C182.527 14.2 181.267 15.38 179.607 15.38C178.067 15.38 177.007 14.64 176.167 13.8L175.067 15.3C176.107 16.32 177.567 17.26 179.887 17.26ZM187.614 2.76V4.44H192.674C192.394 8.08 190.754 11.04 186.854 13.3L188.054 14.76C193.134 11.84 194.714 7.58 194.714 2.76H187.614ZM200.354 0.479999V7.54H198.294V0.959999H196.354V17.7H198.294V9.22H200.354V18.54H202.314V0.479999H200.354ZM214.532 14.72V11.64H220.172V9.98H209.352V7.46H219.772V1.74H207.292V3.4H217.732V5.82H207.332V11.64H212.472V14.72H205.352V16.42H221.712V14.72H214.532ZM233.723 4.14H236.703V2.44H228.543V4.14H231.723V5.44C231.723 8.66 230.523 11.92 227.963 13.52L229.203 15.04C230.943 13.94 232.103 12 232.743 9.72C233.383 11.82 234.503 13.6 236.203 14.6L237.403 13.1C234.883 11.64 233.723 8.52 233.723 5.44V4.14ZM238.043 6.82H235.383V8.5H238.043V17.66H239.983V0.82H238.043V6.82ZM241.683 0.46V18.52H243.643V0.46H241.683ZM257.321 2.54H253.021V0.479999H250.961V2.54H246.661V4.18H257.321V2.54ZM249.581 8.44C249.581 7.3 250.561 6.62 251.981 6.62C253.421 6.62 254.401 7.3 254.401 8.44C254.401 9.58 253.421 10.26 251.981 10.26C250.561 10.26 249.581 9.58 249.581 8.44ZM256.361 8.44C256.361 6.4 254.581 5.02 251.981 5.02C249.401 5.02 247.601 6.4 247.601 8.44C247.601 10.5 249.401 11.86 251.981 11.86C254.581 11.86 256.361 10.5 256.361 8.44ZM251.381 12.98H249.301V18.2H261.461V16.52H251.381V12.98ZM260.741 6.24V0.479999H258.681V14.02H260.741V7.94H263.301V6.24H260.741ZM276.58 8.38C275.12 8.6 273.58 8.74 272.04 8.8V7.18H275.38V5.52H268.72V3.02H275.24V1.34H266.66V7.18H269.98V8.9C268.22 8.96 266.54 8.96 265.08 8.96L265.36 10.58C268.54 10.58 272.84 10.52 276.72 9.82L276.58 8.38ZM277.92 16.68H270V14.92H277.92V16.68ZM277.92 13.34H270V11.7H267.96V18.32H279.96V11.7H277.92V13.34ZM277.88 0.479999V10.92H279.96V0.479999H277.88ZM286.538 2.24H284.498V13.98H286.038C288.838 13.98 291.758 13.76 294.858 13.12L294.638 11.4C291.798 11.98 289.098 12.2 286.538 12.22V2.24ZM296.298 0.479999V18.54H298.358V0.479999H296.298ZM304.616 3.86H310.956V2.18H302.556V14.12H304.036C307.296 14.12 309.736 14.02 312.476 13.52L312.256 11.82C309.736 12.26 307.536 12.38 304.616 12.4V3.86ZM318.636 7.42H315.816V0.46H313.756V18.56H315.816V9.12H318.636V7.42ZM322.195 17.26C323.055 17.26 323.735 16.6 323.735 15.66C323.735 14.7 323.055 14.02 322.195 14.02C321.335 14.02 320.655 14.7 320.655 15.66C320.655 16.6 321.335 17.26 322.195 17.26Z" fill="#81868A"/>
</svg>
