<svg width="532" height="132" viewBox="0 0 532 132" fill="none" xmlns="http://www.w3.org/2000/svg">
<path d="M33.75 41.995C33.75 44.8 30.12 46.01 23.245 46.01C16.37 46.01 12.795 44.8 12.795 41.995C12.795 39.245 16.37 37.98 23.245 37.98C30.12 37.98 33.75 39.245 33.75 41.995ZM46.235 26.155V20.38H39.855C40.845 14.99 40.845 10.645 40.845 6.905V2.89H6.03V8.665H33.695C33.695 12.02 33.53 15.705 32.595 20.38H0.365V26.155H19.615V32.37C10.76 33.085 5.48 36.55 5.48 41.995C5.48 48.21 12.245 51.785 23.245 51.785C34.245 51.785 41.065 48.21 41.065 41.995C41.065 36.55 35.73 33.085 26.875 32.37V26.155H46.235ZM63.5007 38.31H84.1257V45.46H63.5007V38.31ZM56.3507 51.125H91.2207V32.645H56.3507V51.125ZM90.2857 21.59C91.4407 15.76 91.4407 11.47 91.4407 7.4V3.33H56.6257V9.105H84.2907C84.2907 12.625 84.1257 16.53 83.0807 21.59H50.9607V27.365H96.8307V21.59H90.2857ZM131.421 6.41H120.091V1.02H112.776V6.41H101.556V12.075H131.366L131.421 6.41ZM110.961 23.625C110.961 20.875 113.216 19.39 116.461 19.39C119.651 19.39 121.961 20.875 121.961 23.625C121.961 26.43 119.651 27.915 116.461 27.915C113.216 27.915 110.961 26.43 110.961 23.625ZM128.891 23.625C128.891 17.905 123.721 13.89 116.461 13.89C109.201 13.89 104.031 17.905 104.031 23.625C104.031 29.455 109.201 33.415 116.461 33.415C123.721 33.415 128.891 29.455 128.891 23.625ZM116.021 36.165H108.761V50.85H143.246V45.075H116.021V36.165ZM141.431 16.53V1.075H134.171V38.97H141.431V22.525H148.141V16.53H141.431ZM190.958 15.815V21.7H199.703V38.09H206.963V1.075H199.703V15.815H190.958ZM167.858 4.87V10.645H183.643C182.433 18.07 175.778 24.12 165.218 27.42L168.188 33.25C182.928 28.575 191.398 18.565 191.398 4.87H167.858ZM181.113 45.075V34.46H173.853V50.85H208.228V45.075H181.113ZM254.235 33.25H246.81V34.185C246.81 39.41 241.915 44.58 230.64 45.955L233.335 51.51C241.585 50.41 247.47 47.165 250.55 42.6C253.575 47.165 259.46 50.41 267.71 51.51L270.35 45.955C259.185 44.58 254.235 39.41 254.235 34.185V33.25ZM240.43 8.72H260.505V14.99H240.43V8.72ZM254.18 25.165V20.655H267.655V3.055H233.28V20.655H246.92V25.165H227.67V30.885H273.43V25.165H254.18ZM321.031 23.955C313.056 21.865 309.536 16.805 309.316 11.8H319.326V6.08H309.316V0.909997H302.056V6.08H292.156V11.8H302.056C301.891 17.3 298.261 22.635 290.341 24.835L293.696 30.445C299.581 28.795 303.596 25.33 305.796 20.875C308.106 24.945 312.011 28.08 317.731 29.565L321.031 23.955ZM304.806 38.53H323.506V45.46H304.806V38.53ZM297.656 51.125H330.601V32.865H297.656V51.125ZM337.311 12.955H330.601V1.075H323.341V30.72H330.601V18.895H337.311V12.955ZM354.907 34.185C351.112 34.185 348.582 30.17 348.582 22.635C348.582 15.155 351.112 11.14 354.907 11.14C358.647 11.14 361.232 15.155 361.232 22.635C361.232 30.17 358.647 34.185 354.907 34.185ZM354.907 4.595C347.207 4.595 341.597 11.525 341.597 22.635C341.597 33.8 347.207 40.785 354.907 40.785C362.552 40.785 368.217 33.8 368.217 22.635C368.217 11.525 362.552 4.595 354.907 4.595ZM388.347 20.16H380.977V1.075H373.717V51.73H380.977V26.155H388.347V20.16ZM394.173 58.715C400.828 56.515 404.568 51.62 404.568 45.185C404.568 40.18 402.478 37.21 398.738 37.21C395.878 37.21 393.513 39.08 393.513 41.995C393.513 45.075 395.933 46.78 398.573 46.78C398.738 46.78 398.903 46.78 399.068 46.78C399.123 49.86 396.758 52.72 392.468 54.315L394.173 58.715ZM33.145 93.56H13.4V90.59H33.145V93.56ZM40.35 81.955H33.145V85.31H13.4V81.955H6.195V98.895H40.35V81.955ZM12.85 123.095H40.57V110.225H5.59V115.56H33.42V118.145H5.645V131.345H41.89V125.955H12.85V123.095ZM0.365 101.645V107.365H46.125V101.645H0.365ZM59.3757 105.44H70.2107V86.025H52.2807V91.8H63.1707V99.72H52.3357V119.905H55.9107C62.2357 119.905 67.8457 119.74 74.3907 118.585L73.7857 112.755C68.6707 113.58 64.1607 113.855 59.3757 113.965V105.44ZM77.2507 98.29H72.2457V104.23H77.2507V129.365H83.9607V81.955H77.2507V98.29ZM87.5357 81.02V131.675H94.4107V81.02H87.5357ZM145.831 104.89C134.391 102.965 128.121 95.1 128.121 87.675V84.045H120.366V87.675C120.366 94.935 114.041 102.965 102.656 104.89L105.736 110.995C114.536 109.29 120.971 104.34 124.216 97.905C127.461 104.34 133.951 109.235 142.751 110.995L145.831 104.89ZM101.556 119.685V125.57H147.426V119.685H101.556ZM163.537 114.625C160.787 114.625 159.137 110.83 159.137 103.02C159.137 95.265 160.787 91.47 163.537 91.47C166.342 91.47 167.937 95.265 167.937 103.02C167.937 110.83 166.342 114.625 163.537 114.625ZM178.442 99.72H174.427C173.602 90.26 169.532 84.65 163.537 84.65C156.827 84.65 152.592 91.58 152.592 103.02C152.592 114.515 156.827 121.445 163.537 121.445C169.697 121.445 173.822 115.505 174.482 105.605H178.442V129.475H185.207V81.9H178.442V99.72ZM188.727 81.02V131.675H195.602V81.02H188.727ZM228.763 100.435H223.098C224.308 96.31 224.748 91.855 224.748 87.07H204.893V92.845H217.543C216.663 102.745 212.208 110.06 202.088 116.11L206.213 121.225C213.363 117.045 217.983 112.04 220.843 106.265H228.763V129.475H235.528V82.175H228.763V100.435ZM239.433 81.02V131.675H246.308V81.02H239.433ZM298.639 92.9H278.564V88.115H298.639V92.9ZM305.734 82.56H271.469V98.455H305.734V82.56ZM311.564 106.87V101.15H265.804V106.87H284.999V110.06H271.029V115.395H298.859V118.035H271.084V131.345H307.329V125.9H278.289V123.04H306.009V110.06H292.259V106.87H311.564ZM330.26 114.185C326.575 114.185 324.1 110.17 324.1 102.635C324.1 95.155 326.575 91.14 330.26 91.14C334 91.14 336.475 95.155 336.475 102.635C336.475 110.17 334 114.185 330.26 114.185ZM351.655 81.02V99.28H343.185C342.195 90.15 337.08 84.595 330.26 84.595C322.725 84.595 317.17 91.525 317.17 102.635C317.17 113.8 322.725 120.785 330.26 120.785C337.3 120.785 342.47 114.845 343.24 105.165H351.655V131.84H358.915V81.02H351.655ZM379.041 97.795H400.711V104.89H379.041V97.795ZM393.506 119.96V110.665H407.861V84.21H400.711V92.075H379.041V84.21H371.836V110.665H386.246V119.96H366.996V125.845H412.866V119.96H393.506ZM433.762 85.475H426.777V94C426.777 102.635 424.082 111.71 416.657 116.22L421.002 121.665C425.567 118.915 428.537 114.075 430.297 108.465C431.892 113.58 434.587 117.87 438.877 120.51L442.837 114.9C435.962 110.335 433.762 101.92 433.762 93.725V85.475ZM443.882 98.18H437.502V104.065H443.882V129.475H450.647V81.9H443.882V98.18ZM454.167 81.075V131.73H461.042V81.075H454.167ZM485.512 110.28C487.272 110.61 489.087 110.775 491.067 110.775C493.047 110.775 494.917 110.61 496.677 110.28V119.96H485.512V110.28ZM491.067 89.27C498.107 89.27 502.837 92.13 502.837 97.19C502.837 102.195 498.107 105.11 491.067 105.11C484.027 105.11 479.352 102.195 479.352 97.19C479.352 92.13 484.027 89.27 491.067 89.27ZM503.882 119.96V107.585C507.677 105.22 509.987 101.59 509.987 97.19C509.987 88.885 502.012 83.55 491.067 83.55C480.177 83.55 472.202 88.885 472.202 97.19C472.147 101.59 474.457 105.22 478.307 107.585V119.96H468.187V125.845H514.057V119.96H503.882ZM523.953 113.14H529.233L530.388 92.845L530.663 85.2H522.523L522.798 92.845L523.953 113.14ZM526.593 127.77C529.453 127.77 531.653 125.46 531.653 122.49C531.653 119.465 529.453 117.21 526.593 117.21C523.733 117.21 521.588 119.465 521.588 122.49C521.588 125.46 523.733 127.77 526.593 127.77Z" fill="black"/>
</svg>
