<svg width="12" height="16" viewBox="0 0 12 16" fill="none" xmlns="http://www.w3.org/2000/svg">
<path d="M7.36304 0H2.40636C1.90964 0 1.43325 0.204129 1.08201 0.567481C0.730772 0.930832 0.533447 1.42364 0.533447 1.9375V13.5625C0.533447 14.0764 0.730772 14.5692 1.08201 14.9325C1.43325 15.2959 1.90964 15.5 2.40636 15.5H9.89803C10.3948 15.5 10.8711 15.2959 11.2224 14.9325C11.5736 14.5692 11.7709 14.0764 11.7709 13.5625V4.55991C11.7709 4.303 11.6722 4.05663 11.4966 3.875L8.02511 0.283844C7.84953 0.102155 7.61138 5.48675e-05 7.36304 0ZM7.55688 3.39062V1.45312L10.3663 4.35938H8.49334C8.24498 4.35938 8.00679 4.25731 7.83117 4.07563C7.65555 3.89396 7.55688 3.64755 7.55688 3.39062ZM2.87459 8.71875C2.75041 8.71875 2.63131 8.66772 2.5435 8.57688C2.45569 8.48604 2.40636 8.36284 2.40636 8.23438C2.40636 8.10591 2.45569 7.98271 2.5435 7.89187C2.63131 7.80103 2.75041 7.75 2.87459 7.75H9.4298C9.55398 7.75 9.67308 7.80103 9.76089 7.89187C9.8487 7.98271 9.89803 8.10591 9.89803 8.23438C9.89803 8.36284 9.8487 8.48604 9.76089 8.57688C9.67308 8.66772 9.55398 8.71875 9.4298 8.71875H2.87459ZM2.40636 10.1719C2.40636 10.0434 2.45569 9.92021 2.5435 9.82937C2.63131 9.73853 2.75041 9.6875 2.87459 9.6875H9.4298C9.55398 9.6875 9.67308 9.73853 9.76089 9.82937C9.8487 9.92021 9.89803 10.0434 9.89803 10.1719C9.89803 10.3003 9.8487 10.4235 9.76089 10.5144C9.67308 10.6052 9.55398 10.6562 9.4298 10.6562H2.87459C2.75041 10.6562 2.63131 10.6052 2.5435 10.5144C2.45569 10.4235 2.40636 10.3003 2.40636 10.1719ZM2.87459 12.5938C2.75041 12.5938 2.63131 12.5427 2.5435 12.4519C2.45569 12.361 2.40636 12.2378 2.40636 12.1094C2.40636 11.9809 2.45569 11.8577 2.5435 11.7669C2.63131 11.676 2.75041 11.625 2.87459 11.625H6.62043C6.74461 11.625 6.8637 11.676 6.95151 11.7669C7.03932 11.8577 7.08865 11.9809 7.08865 12.1094C7.08865 12.2378 7.03932 12.361 6.95151 12.4519C6.8637 12.5427 6.74461 12.5938 6.62043 12.5938H2.87459Z" fill="#81868A"/>
</svg>
