<svg width="16" height="14" viewBox="0 0 16 14" fill="none" xmlns="http://www.w3.org/2000/svg">
<path d="M9.80348 2.90625H13.5325C13.7927 2.90622 14.0501 2.96231 14.2883 3.07093C14.5264 3.17955 14.74 3.33832 14.9156 3.53712C15.0911 3.73592 15.2246 3.97037 15.3077 4.22554C15.3907 4.4807 15.4214 4.75096 15.3979 5.01909L14.8014 11.8003C14.7591 12.2817 14.5444 12.7294 14.1994 13.0554C13.8544 13.3814 13.4041 13.5623 12.9369 13.5625H3.24546C2.77821 13.5623 2.32789 13.3814 1.98293 13.0554C1.63796 12.7294 1.42326 12.2817 1.38097 11.8003L0.78445 5.01909C0.744544 4.57035 0.857863 4.12133 1.10472 3.75003L1.0682 2.90625C1.0682 2.39239 1.26552 1.89958 1.61676 1.53623C1.968 1.17288 2.44439 0.96875 2.94111 0.96875H6.37979C6.87648 0.96886 7.35278 1.17306 7.70394 1.53644L8.47933 2.33856C8.83049 2.70194 9.30679 2.90614 9.80348 2.90625ZM2.01027 3.0225C2.21068 2.94694 2.42606 2.90625 2.65081 2.90625H7.70394L7.04186 2.22134C6.86629 2.03966 6.62813 1.93755 6.37979 1.9375H2.94111C2.6958 1.93745 2.46027 2.03699 2.28515 2.2147C2.11003 2.39242 2.00932 2.63412 2.00466 2.88784L2.01027 3.0225Z" fill="#81868A"/>
</svg>
