<svg width="632" height="191" viewBox="0 0 632 191" fill="none" xmlns="http://www.w3.org/2000/svg">
<path d="M29.95 11.6H12V8.9H29.95V11.6ZM36.5 1.05H29.95V4.1H12V1.05H5.45V16.45H36.5V1.05ZM11.5 38.45H36.7V26.75H4.9V31.6H30.2V33.95H4.95V45.95H37.9V41.05H11.5V38.45ZM0.15 18.95V24.15H41.75V18.95H0.15ZM53.7961 22.4H63.6461V4.75H47.3461V10H57.2461V17.2H47.3961V35.55H50.6461C56.3961 35.55 61.4961 35.4 67.4461 34.35L66.8961 29.05C62.2461 29.8 58.1461 30.05 53.7961 30.15V22.4ZM70.0461 15.9H65.4961V21.3H70.0461V44.15H76.1461V1.05H70.0461V15.9ZM79.3961 0.199999V46.25H85.6461V0.199999H79.3961ZM132.392 21.9C121.992 20.15 116.292 13 116.292 6.25V2.95H109.242V6.25C109.242 12.85 103.492 20.15 93.1422 21.9L95.9422 27.45C103.942 25.9 109.792 21.4 112.742 15.55C115.692 21.4 121.592 25.85 129.592 27.45L132.392 21.9ZM92.1422 35.35V40.7H133.842V35.35H92.1422ZM154.938 21.05H145.938V9.25H154.938V21.05ZM161.438 4.05H139.488V26.25H161.438V4.05ZM151.288 30.55H144.688V45.5H176.038V40.25H151.288V30.55ZM174.388 13.55V0.249998H167.788V33.85H174.388V18.95H180.488V13.55H174.388ZM198.934 3.3C191.734 3.3 186.284 8.05 186.284 14.65C186.284 21.3 191.734 26 198.934 26C206.134 26 211.634 21.3 211.634 14.65C211.634 8.05 206.134 3.3 198.934 3.3ZM198.934 8.95C202.484 8.95 205.184 11.05 205.184 14.65C205.184 18.25 202.484 20.35 198.934 20.35C195.384 20.35 192.684 18.25 192.684 14.65C192.684 11.05 195.384 8.95 198.934 8.95ZM215.934 0.199999V46.4H222.534V0.199999H215.934ZM185.184 37.05C193.134 37.05 203.934 36.95 213.834 34.95L213.434 30.2C203.734 31.65 192.434 31.7 184.334 31.7L185.184 37.05ZM589.708 0.199999V46.4H596.308V0.199999H589.708ZM571.558 3.45C564.608 3.45 559.458 9.75 559.458 19.85C559.458 30 564.608 36.35 571.558 36.35C578.508 36.35 583.658 30 583.658 19.85C583.658 9.75 578.508 3.45 571.558 3.45ZM571.558 9.4C574.958 9.4 577.308 13.05 577.308 19.85C577.308 26.7 574.958 30.35 571.558 30.35C568.158 30.35 565.808 26.7 565.808 19.85C565.808 13.05 568.158 9.4 571.558 9.4ZM40.3 88.6C29.85 87.15 24.55 81.15 24.55 75.8V73.6H17.5V75.8C17.5 81.2 12.25 87.15 1.75 88.6L4.25 93.9C12.3 92.7 18.1 88.95 21.05 84C24 88.95 29.75 92.7 37.8 93.9L40.3 88.6ZM41.8 97.3H0.2V102.65H17.55V118.35H24.15V102.65H41.8V97.3ZM78.0961 112.5H60.6961V108.4H78.0961V112.5ZM78.0961 103.4H60.6961V99H54.1461V117.75H84.6461V99H78.0961V103.4ZM58.8461 90.65C55.4961 90.65 53.0461 88.6 53.0461 85.15C53.0461 81.7 55.4961 79.65 58.8461 79.65C62.2461 79.65 64.6961 81.7 64.6961 85.15C64.6961 88.6 62.2461 90.65 58.8461 90.65ZM78.0461 72.25V82.4H70.6961C69.3961 77.5 64.6961 74.15 58.8461 74.15C51.9461 74.15 46.7461 78.75 46.7461 85.15C46.7461 91.55 51.9461 96.15 58.8461 96.15C64.7961 96.15 69.4961 92.75 70.7461 87.75H78.0461V97H84.6461V72.25H78.0461ZM108.17 107.75H133.47V118.35H140.07V102.45H108.17V107.75ZM127.57 93.7V88.8H140.57V83.55H115.22V72.95H108.62V88.8H120.97V93.7H103.52V98.95H145.17V93.7H127.57ZM170.266 73.15C160.116 73.15 153.616 76.55 153.616 82.1C153.616 87.7 160.116 91.05 170.266 91.05C180.416 91.05 186.966 87.7 186.966 82.1C186.966 76.55 180.416 73.15 170.266 73.15ZM170.266 78.2C176.566 78.2 180.166 79.5 180.166 82.1C180.166 84.7 176.566 86 170.266 86C164.016 86 160.416 84.7 160.416 82.1C160.416 79.5 164.016 78.2 170.266 78.2ZM154.316 102.15V117.75H186.116V102.15H154.316ZM179.616 107.3V112.6H160.766V107.3H179.616ZM149.466 93.7V98.9H191.066V93.7H149.466ZM219.863 98.2C221.113 90.6 221.113 85 221.113 80.55V76.8H197.413V82.05H214.613C214.613 86.15 214.463 91.1 213.413 97.65L219.863 98.2ZM209.813 90H203.313V103.6C200.413 103.65 197.613 103.65 195.063 103.65L195.663 109.05C203.663 109 213.963 108.8 223.313 107.2L222.963 102.45C218.763 102.95 214.263 103.25 209.813 103.4V90ZM237.863 90.75H231.663V72.2H225.063V118.25H231.663V96.25H237.863V90.75ZM268.537 98.8C270.137 99.1 271.787 99.25 273.587 99.25C275.387 99.25 277.087 99.1 278.687 98.8V107.6H268.537V98.8ZM273.587 79.7C279.987 79.7 284.287 82.3 284.287 86.9C284.287 91.45 279.987 94.1 273.587 94.1C267.187 94.1 262.937 91.45 262.937 86.9C262.937 82.3 267.187 79.7 273.587 79.7ZM285.237 107.6V96.35C288.687 94.2 290.787 90.9 290.787 86.9C290.787 79.35 283.537 74.5 273.587 74.5C263.687 74.5 256.437 79.35 256.437 86.9C256.387 90.9 258.487 94.2 261.987 96.35V107.6H252.787V112.95H294.487V107.6H285.237ZM305.583 86.05C305.583 82.45 308.133 80.35 311.633 80.35C315.083 80.35 317.683 82.45 317.683 86.05C317.683 89.6 315.083 91.75 311.633 91.75C308.133 91.75 305.583 89.6 305.583 86.05ZM324.083 86.05C324.083 79.5 318.683 74.75 311.633 74.75C304.533 74.75 299.133 79.5 299.133 86.05C299.133 92.6 304.533 97.3 311.633 97.3C318.683 97.3 324.083 92.6 324.083 86.05ZM304.333 106.55H328.433V118.35H335.033V101.25H304.333V106.55ZM340.933 83.6V78.25H335.033V72.25H328.433V99.4H335.033V93.6H340.933V88.2H335.033V83.6H340.933ZM356.429 104.5H349.829V117.5H381.779V112.25H356.429V104.5ZM356.629 83.5H374.579V87.5H356.629V83.5ZM368.829 96.55V92.7H381.129V73.9H374.579V78.4H356.629V73.9H350.079V92.7H362.229V96.55H344.779V101.8H386.429V96.55H368.829ZM411.575 77.75C418.275 77.75 421.425 78.7 421.425 80.75C421.425 82.9 418.275 83.8 411.575 83.8C404.925 83.8 401.775 82.9 401.775 80.75C401.775 78.7 404.925 77.75 411.575 77.75ZM411.575 88.6C422.125 88.6 428.275 85.85 428.275 80.75C428.275 75.7 422.125 72.9 411.575 72.9C401.075 72.9 394.925 75.7 394.925 80.75C394.925 85.85 401.075 88.6 411.575 88.6ZM402.125 110.4H427.325V98.55H395.525V103.4H420.825V105.85H395.575V117.95H428.525V113H402.125V110.4ZM390.775 90.8V95.95H432.375V90.8H390.775ZM26.25 161.75C21.25 162.8 16.65 163.1 8.3 163.15V152.6H22.4V147.35H1.75V168.45H5.65C15.95 168.45 21.25 168.2 26.9 167L26.25 161.75ZM21.3 185.05C15.5 185.05 12.25 183.75 12.25 180.95C12.25 178.2 15.5 176.9 21.3 176.9C27.15 176.9 30.4 178.2 30.4 180.95C30.4 183.75 27.15 185.05 21.3 185.05ZM21.3 171.65C11.85 171.65 5.75 175.15 5.75 180.95C5.75 186.85 11.85 190.35 21.3 190.35C30.85 190.35 36.9 186.85 36.9 180.95C36.9 175.15 30.85 171.65 21.3 171.65ZM36.5 155.15V144.2H29.85V170.85H36.5V160.5H42.5V155.15H36.5ZM84.3961 144.3H77.7461V177.85H84.3961V144.3ZM74.3461 165.65C66.8461 163.25 63.6461 157.35 63.6461 151.25V146.8H56.9461V151.25C56.9461 157.4 53.6461 163.85 45.9961 166.45L49.3461 171.7C54.6961 169.85 58.2961 166.1 60.3961 161.45C62.3961 165.75 65.8961 169.15 70.9961 170.9L74.3461 165.65ZM60.3461 184.25V174.65H53.7461V189.5H85.5461V184.25H60.3461ZM102.492 174.75C99.9922 174.75 98.4922 171.3 98.4922 164.2C98.4922 157.15 99.9922 153.7 102.492 153.7C105.042 153.7 106.492 157.15 106.492 164.2C106.492 171.3 105.042 174.75 102.492 174.75ZM116.042 161.2H112.392C111.642 152.6 107.942 147.5 102.492 147.5C96.3922 147.5 92.5422 153.8 92.5422 164.2C92.5422 174.65 96.3922 180.95 102.492 180.95C108.092 180.95 111.842 175.55 112.442 166.55H116.042V188.25H122.192V145H116.042V161.2ZM125.392 144.2V190.25H131.642V144.2H125.392ZM161.788 161.85H156.638C157.738 158.1 158.138 154.05 158.138 149.7H140.088V154.95H151.588C150.788 163.95 146.738 170.6 137.538 176.1L141.288 180.75C147.788 176.95 151.988 172.4 154.588 167.15H161.788V188.25H167.938V145.25H161.788V161.85ZM171.488 144.2V190.25H177.738V144.2H171.488ZM233.663 144.3H227.063V167.5H233.663V144.3ZM223.713 161.8C216.263 159.6 212.963 154.25 212.963 148.8V145.35H206.263V148.8C206.263 154.4 202.913 160.2 195.263 162.55L198.463 167.7C203.863 166.05 207.613 162.55 209.713 158.2C211.763 162.2 215.313 165.4 220.563 166.95L223.713 161.8ZM209.613 184.85V182H233.713V169.55H203.013V174.6H227.163V177.3H203.063V189.95H234.863V184.85H209.613ZM259.309 147.8H252.709V154.5C252.709 163.45 248.909 172.35 240.859 175.8L244.809 181.25C250.309 178.65 254.059 173.7 256.109 167.55C258.159 173.2 261.709 177.75 267.009 180.15L270.759 174.8C262.959 171.45 259.309 163.05 259.309 154.5V147.8ZM273.009 144.2V190.4H279.609V144.2H273.009ZM289.105 147.7V152.95H304.105C303.055 159.4 297.355 164.75 287.105 167.55L289.855 172.8C303.555 168.85 311.255 160.2 311.255 147.7H289.105ZM300.555 173.9H293.955V189.5H325.255V184.25H300.555V173.9ZM323.655 157.1V144.25H317.055V177.2H323.655V162.5H329.805V157.1H323.655ZM354.251 146.55C344.601 146.55 337.101 151.85 337.101 159.9C337.101 167.9 344.601 173.2 354.251 173.2C363.951 173.2 371.451 167.9 371.451 159.9C371.451 151.85 363.951 146.55 354.251 146.55ZM354.251 151.95C360.551 151.95 365.001 154.9 365.001 159.9C365.001 164.8 360.551 167.8 354.251 167.8C348.001 167.8 343.551 164.8 343.551 159.9C343.551 154.9 348.001 151.95 354.251 151.95ZM333.451 179.4V184.8H375.151V179.4H333.451ZM403.547 179.85V173H417.497V167.7H390.797V162.55H416.447V147.2H384.197V152.45H409.947V157.4H384.247V173H396.947V179.85H379.447V185.25H421.147V179.85H403.547ZM468.671 178.25H475.271V144.25H468.671V154.05H460.221V159.4H468.671V178.25ZM464.271 166.45C457.071 163.9 453.971 158.05 453.971 152.05V147.05H447.271V152C447.271 158.55 444.071 164.95 436.471 167.5L439.921 172.65C445.271 170.7 448.821 166.95 450.771 162.2C452.671 166.45 455.971 169.8 460.771 171.55L464.271 166.45ZM451.471 184.25V174.85H444.871V189.5H476.271V184.25H451.471ZM499.717 147.8H493.067V154.5C493.067 163.05 489.567 171.85 481.817 175.5L485.767 180.85C490.967 178.3 494.417 173.45 496.417 167.6C498.317 173.1 501.567 177.55 506.367 180L510.367 174.8C502.967 171.15 499.717 162.8 499.717 154.5V147.8ZM525.517 161.95H518.817V144.25H512.217V190.3H518.817V167.45H525.517V161.95ZM542.063 175.5C538.963 175.5 536.663 173.4 536.663 169.9C536.663 166.4 538.963 164.25 542.063 164.25C545.163 164.25 547.413 166.4 547.413 169.85C547.413 173.4 545.163 175.5 542.063 175.5ZM542.063 158.9C535.363 158.9 530.363 163.45 530.363 169.85C530.363 176.35 535.363 180.9 542.063 180.9C548.713 180.9 553.663 176.35 553.663 169.85C553.663 163.45 548.713 158.9 542.063 158.9ZM545.313 145.05H538.713V151.05H528.513V156.3H555.313V151.05H545.313V145.05ZM571.513 162.25H564.913V144.25H558.313V190.3H564.913V167.7H571.513V162.25ZM578.959 170.95C586.959 169.45 592.659 165.4 595.609 159.95C598.559 165.3 604.359 169.25 612.459 170.7L615.009 165.45C605.309 164 599.959 158.7 599.159 152.85H612.909V147.6H578.209V152.85H591.959C591.159 158.7 585.809 164.2 576.359 165.65L578.959 170.95ZM606.259 179.75V170.4H599.659V179.75H591.609V170.4H585.009V179.75H574.709V185.1H616.509V179.75H606.259ZM626.705 186.7C629.355 186.7 631.305 184.6 631.305 181.9C631.305 179.15 629.355 177.1 626.705 177.1C624.105 177.1 622.155 179.15 622.155 181.9C622.155 184.6 624.105 186.7 626.705 186.7Z" fill="white"/>
<path d="M254.909 42.7C263.459 42.7 268.509 37.55 268.509 31.5C268.509 26.15 265.559 23.3 261.059 21.45L256.209 19.4C253.059 18.15 250.459 17.2 250.459 14.55C250.459 12.1 252.509 10.65 255.759 10.65C258.809 10.65 261.259 11.75 263.609 13.7L267.359 9.05C264.359 6 260.059 4.3 255.759 4.3C248.259 4.3 242.959 8.95 242.959 15C242.959 20.4 246.709 23.4 250.459 24.95L255.409 27.05C258.709 28.45 260.959 29.3 260.959 32.05C260.959 34.65 258.909 36.3 255.059 36.3C251.809 36.3 248.309 34.65 245.659 32.2L241.409 37.3C245.009 40.75 249.959 42.7 254.909 42.7ZM281.238 42H288.638V11.15H299.138V4.95H270.838V11.15H281.238V42ZM312.488 42H319.888V11.15H330.388V4.95H302.088V11.15H312.488V42ZM329.593 52.65C335.643 50.65 339.043 46.2 339.043 40.35C339.043 35.8 337.143 33.1 333.743 33.1C331.143 33.1 328.993 34.8 328.993 37.45C328.993 40.25 331.193 41.8 333.593 41.8C333.743 41.8 333.893 41.8 334.043 41.8C334.093 44.6 331.943 47.2 328.043 48.65L329.593 52.65ZM357.53 42H364.53V27.15C364.53 22.9 363.98 18.25 363.63 14.25H363.88L367.63 22.2L378.33 42H385.83V4.95H378.83V19.75C378.83 23.95 379.43 28.85 379.78 32.7H379.53L375.83 24.7L365.08 4.95H357.53V42ZM394.982 42H417.432V35.8H402.382V4.95H394.982V42ZM423.888 42H431.288V28.85H436.238C444.188 28.85 450.538 25.05 450.538 16.6C450.538 7.85 444.238 4.95 436.038 4.95H423.888V42ZM431.288 23V10.85H435.488C440.588 10.85 443.288 12.3 443.288 16.6C443.288 20.85 440.838 23 435.738 23H431.288ZM507.816 22.5H501.766C502.916 16.05 502.916 11.35 502.916 7.05V2.9H470.966V8.2H496.466C496.466 12.15 496.366 16.65 495.216 22.5H466.216V27.8H483.416V46.3H490.116V27.8H507.816V22.5ZM544.062 27.25H550.662V0.249998H544.062V8.65H535.662V14H544.062V27.25ZM539.862 20.6C532.562 18.25 529.562 12.65 529.562 6.45V2.65H522.862V6.75C522.862 13.1 519.612 19.35 511.762 21.85L515.212 27.15C520.662 25.3 524.312 21.6 526.362 16.9C528.312 21 531.562 24.15 536.412 25.8L539.862 20.6ZM535.112 41.25C529.062 41.25 525.912 40 525.912 37.4C525.912 34.75 529.062 33.5 535.112 33.5C541.112 33.5 544.262 34.75 544.262 37.4C544.262 40 541.112 41.25 535.112 41.25ZM535.112 28.4C525.312 28.4 519.312 31.7 519.312 37.4C519.312 43 525.312 46.3 535.112 46.3C544.862 46.3 550.862 43 550.862 37.4C550.862 31.7 544.862 28.4 535.112 28.4Z" fill="#1E70F6"/>
</svg>
