<svg width="35" height="36" viewBox="0 0 35 36" fill="none" xmlns="http://www.w3.org/2000/svg">
<path d="M35 17.7408C35 13.0357 33.1563 8.52322 29.8744 5.19617C26.5925 1.86912 22.1413 0 17.5 0C12.8587 0 8.40752 1.86912 5.12563 5.19617C1.84374 8.52322 0 13.0357 0 17.7408C0 22.446 1.84374 26.9584 5.12563 30.2855C8.40752 33.6125 12.8587 35.4817 17.5 35.4817C22.1413 35.4817 26.5925 33.6125 29.8744 30.2855C33.1563 26.9584 35 22.446 35 17.7408ZM18.5938 25.5024C18.5938 25.7965 18.4785 26.0785 18.2734 26.2865C18.0683 26.4944 17.7901 26.6112 17.5 26.6112C17.2099 26.6112 16.9317 26.4944 16.7266 26.2865C16.5215 26.0785 16.4062 25.7965 16.4062 25.5024V12.6559L11.7119 17.4171C11.5065 17.6253 11.2279 17.7422 10.9375 17.7422C10.6471 17.7422 10.3685 17.6253 10.1631 17.4171C9.95775 17.2089 9.84237 16.9265 9.84237 16.632C9.84237 16.3376 9.95775 16.0552 10.1631 15.847L16.7256 9.19418C16.8272 9.09092 16.9479 9.009 17.0808 8.9531C17.2137 8.8972 17.3561 8.86843 17.5 8.86843C17.6439 8.86843 17.7863 8.8972 17.9192 8.9531C18.0521 9.009 18.1728 9.09092 18.2744 9.19418L24.8369 15.847C25.0423 16.0552 25.1576 16.3376 25.1576 16.632C25.1576 16.9265 25.0423 17.2089 24.8369 17.4171C24.6315 17.6253 24.3529 17.7422 24.0625 17.7422C23.7721 17.7422 23.4935 17.6253 23.2881 17.4171L18.5938 12.6559V25.5024Z" fill="#1E70F6"/>
</svg>
