<svg width="537" height="131" viewBox="0 0 537 131" fill="none" xmlns="http://www.w3.org/2000/svg">
<path d="M20.2751 10.91H30.7251V4.915H2.34508V10.91H12.9051V13.715C12.9051 22.35 8.78008 31.645 0.310078 35.44L4.43508 41.215C10.3751 38.52 14.4451 32.965 16.7001 26.365C18.9551 32.47 22.9701 37.42 28.8551 39.95L32.8151 34.23C24.3451 30.71 20.2751 21.965 20.2751 13.715V10.91ZM35.4001 0.0749979V50.73H42.6601V0.0749979H35.4001ZM63.8308 37.31H84.4558V44.46H63.8308V37.31ZM56.6808 50.125H91.5508V31.645H56.6808V50.125ZM90.6158 20.59C91.7708 14.76 91.7708 10.47 91.7708 6.4V2.33H56.9558V8.105H84.6208C84.6208 11.625 84.4558 15.53 83.4108 20.59H51.2908V26.365H97.1608V20.59H90.6158ZM147.622 17.29H126.777V8.27H147.622V17.29ZM154.717 2.55H119.627V23.01H154.717V2.55ZM160.217 28.4H114.347V34.175H133.487V50.73H140.747V34.175H160.217V28.4ZM183.698 31.48H192.553V39.235H183.698V31.48ZM199.703 39.235V31.48H206.798V25.705H177.428V20.15H205.643V3.32H170.168V9.095H198.493V14.485H170.223V31.48H176.548V39.235H164.888V45.175H210.813V39.235H199.703ZM242.85 32.965H236.25V22.02H242.85V32.965ZM254.29 18.61H249.56V4.695H242.85V16.3H236.25V4.64H229.43V38.74H249.56V24.44H254.29V48.53H261.055V0.954996H254.29V18.61ZM264.575 0.0199986V50.675H271.45V0.0199986H264.575ZM287.835 24.055H303.675V18.39H287.835V10.14H304.39V4.255H280.575V39.29H284.865C293.555 39.29 300.375 39.07 308.075 37.915L307.415 32.14C300.815 33.13 294.985 33.405 287.835 33.46V24.055ZM325.62 19.27H318.25V0.0749979H310.99V50.785H318.25V25.265H325.62V19.27ZM350.012 24.88H359.967V19.27H350.012V11.405H361.892V5.63H343.137V39.565H346.602C353.862 39.565 358.702 39.455 364.422 38.52L363.817 32.745C359.252 33.46 355.292 33.68 350.012 33.735V24.88ZM367.777 18.5H362.277V24.385H367.777V48.475H374.542V1.01H367.777V18.5ZM378.282 0.0199986V50.675H385.157V0.0199986H378.282ZM436.523 23.89C425.083 21.965 418.813 14.1 418.813 6.675V3.045H411.058V6.675C411.058 13.935 404.733 21.965 393.348 23.89L396.428 29.995C405.228 28.29 411.663 23.34 414.908 16.905C418.153 23.34 424.643 28.235 433.443 29.995L436.523 23.89ZM392.248 38.685V44.57H438.118V38.685H392.248ZM483.819 26.2H455.604V20.535H482.279V14.925H455.604V9.59H483.434V3.76H448.234V31.92H483.819V26.2ZM442.844 39.015V44.9H488.714V39.015H442.844ZM504.824 33.625C502.074 33.625 500.424 29.83 500.424 22.02C500.424 14.265 502.074 10.47 504.824 10.47C507.629 10.47 509.224 14.265 509.224 22.02C509.224 29.83 507.629 33.625 504.824 33.625ZM519.729 18.72H515.714C514.889 9.26 510.819 3.65 504.824 3.65C498.114 3.65 493.879 10.58 493.879 22.02C493.879 33.515 498.114 40.445 504.824 40.445C510.984 40.445 515.109 34.505 515.769 24.605H519.729V48.475H526.494V0.899997H519.729V18.72ZM530.014 0.0199986V50.675H536.889V0.0199986H530.014ZM166.003 102.955C158.028 100.865 154.508 95.805 154.288 90.8H164.298V85.08H154.288V79.91H147.028V85.08H137.128V90.8H147.028C146.863 96.3 143.233 101.635 135.313 103.835L138.668 109.445C144.553 107.795 148.568 104.33 150.768 99.875C153.078 103.945 156.983 107.08 162.703 108.565L166.003 102.955ZM149.778 117.53H168.478V124.46H149.778V117.53ZM142.628 130.125H175.573V111.865H142.628V130.125ZM182.283 91.955H175.573V80.075H168.313V109.72H175.573V97.895H182.283V91.955ZM212.913 106.145C213.133 104.77 213.243 103.23 213.243 101.635C213.243 99.71 213.078 97.895 212.748 96.245H221.548V106.145H212.913ZM200.153 113.185C196.468 113.185 193.938 109.17 193.938 101.635C193.938 94.155 196.468 90.14 200.153 90.14C203.893 90.14 206.423 94.155 206.423 101.635C206.423 109.17 203.893 113.185 200.153 113.185ZM221.548 80.02V90.415H210.768C208.513 86.07 204.718 83.595 200.153 83.595C192.618 83.595 187.063 90.525 187.063 101.635C187.063 112.8 192.618 119.785 200.153 119.785C205.048 119.84 208.953 116.98 211.208 112.03H221.548V130.84H228.808V80.02H221.548ZM251.519 114.45C248.109 114.45 245.579 112.14 245.579 108.29C245.579 104.44 248.109 102.075 251.519 102.075C254.929 102.075 257.404 104.44 257.404 108.235C257.404 112.14 254.929 114.45 251.519 114.45ZM251.519 96.19C244.149 96.19 238.649 101.195 238.649 108.235C238.649 115.385 244.149 120.39 251.519 120.39C258.834 120.39 264.279 115.385 264.279 108.235C264.279 101.195 258.834 96.19 251.519 96.19ZM255.094 80.955H247.834V87.555H236.614V93.33H266.094V87.555H255.094V80.955ZM283.914 99.875H276.654V80.075H269.394V130.73H276.654V105.87H283.914V99.875ZM303.655 84.475H296.67V93C296.67 101.635 293.975 110.71 286.55 115.22L290.895 120.665C295.46 117.915 298.43 113.075 300.19 107.465C301.785 112.58 304.48 116.87 308.77 119.51L312.73 113.9C305.855 109.335 303.655 100.92 303.655 92.725V84.475ZM313.775 97.18H307.395V103.065H313.775V128.475H320.54V80.9H313.775V97.18ZM324.06 80.075V130.73H330.935V80.075H324.06ZM355.405 109.28C357.165 109.61 358.98 109.775 360.96 109.775C362.94 109.775 364.81 109.61 366.57 109.28V118.96H355.405V109.28ZM360.96 88.27C368 88.27 372.73 91.13 372.73 96.19C372.73 101.195 368 104.11 360.96 104.11C353.92 104.11 349.245 101.195 349.245 96.19C349.245 91.13 353.92 88.27 360.96 88.27ZM373.775 118.96V106.585C377.57 104.22 379.88 100.59 379.88 96.19C379.88 87.885 371.905 82.55 360.96 82.55C350.07 82.55 342.095 87.885 342.095 96.19C342.04 100.59 344.35 104.22 348.2 106.585V118.96H338.08V124.845H383.95V118.96H373.775ZM393.846 112.14H399.126L400.281 91.845L400.556 84.2H392.416L392.691 91.845L393.846 112.14ZM396.486 126.77C399.346 126.77 401.546 124.46 401.546 121.49C401.546 118.465 399.346 116.21 396.486 116.21C393.626 116.21 391.481 118.465 391.481 121.49C391.481 124.46 393.626 126.77 396.486 126.77Z" fill="white"/>
</svg>
