<svg width="40" height="28" viewBox="0 0 40 28" fill="none" xmlns="http://www.w3.org/2000/svg">
<path d="M11.015 3.355C13.5137 1.20034 16.7006 0.0103463 20 0C26.725 0 32.3075 5 32.915 11.4475C36.895 12.01 40 15.3425 40 19.4325C40 23.9225 36.255 27.5 31.7175 27.5H9.4525C4.27 27.5 0 23.415 0 18.295C0 13.8875 3.165 10.2375 7.355 9.3125C7.7125 7.155 9.1 5.005 11.015 3.355ZM12.6475 5.2475C10.755 6.88 9.765 8.8475 9.765 10.3875V11.5075L8.6525 11.63C5.16 12.0125 2.5 14.88 2.5 18.295C2.5 21.9625 5.575 25 9.4525 25H31.7175C34.95 25 37.5 22.47 37.5 19.4325C37.5 16.3925 34.95 13.8625 31.7175 13.8625H30.4675V12.6125C30.47 7.0625 25.82 2.5 20 2.5C17.2997 2.51079 14.6921 3.48358 12.6475 5.2475Z" fill="#81868A"/>
</svg>
