<svg width="60" height="57" viewBox="0 0 60 57" fill="none" xmlns="http://www.w3.org/2000/svg">
<path d="M60 27C60 41.4975 46.5675 53.25 30 53.25C27.0287 53.254 24.0697 52.8682 21.1987 52.1025C19.0087 53.2125 13.98 55.3425 5.52 56.73C4.77 56.85 4.2 56.07 4.49625 55.3725C5.82375 52.2375 7.02375 48.06 7.38375 44.25C2.79 39.6375 0 33.6 0 27C0 12.5025 13.4325 0.75 30 0.75C46.5675 0.75 60 12.5025 60 27ZM18.75 27C18.75 26.0054 18.3549 25.0516 17.6516 24.3484C16.9484 23.6451 15.9946 23.25 15 23.25C14.0054 23.25 13.0516 23.6451 12.3483 24.3484C11.6451 25.0516 11.25 26.0054 11.25 27C11.25 27.9946 11.6451 28.9484 12.3483 29.6516C13.0516 30.3549 14.0054 30.75 15 30.75C15.9946 30.75 16.9484 30.3549 17.6516 29.6516C18.3549 28.9484 18.75 27.9946 18.75 27ZM33.75 27C33.75 26.0054 33.3549 25.0516 32.6516 24.3484C31.9484 23.6451 30.9946 23.25 30 23.25C29.0054 23.25 28.0516 23.6451 27.3484 24.3484C26.6451 25.0516 26.25 26.0054 26.25 27C26.25 27.9946 26.6451 28.9484 27.3484 29.6516C28.0516 30.3549 29.0054 30.75 30 30.75C30.9946 30.75 31.9484 30.3549 32.6516 29.6516C33.3549 28.9484 33.75 27.9946 33.75 27ZM45 30.75C45.9946 30.75 46.9484 30.3549 47.6516 29.6516C48.3549 28.9484 48.75 27.9946 48.75 27C48.75 26.0054 48.3549 25.0516 47.6516 24.3484C46.9484 23.6451 45.9946 23.25 45 23.25C44.0054 23.25 43.0516 23.6451 42.3484 24.3484C41.6451 25.0516 41.25 26.0054 41.25 27C41.25 27.9946 41.6451 28.9484 42.3484 29.6516C43.0516 30.3549 44.0054 30.75 45 30.75Z" fill="#1E70F6"/>
</svg>
