<svg width="557" height="211" viewBox="0 0 557 211" fill="none" xmlns="http://www.w3.org/2000/svg">
<path d="M35.455 37.475H42.715V0.0749979H35.455V10.855H26.16V16.74H35.455V37.475ZM30.615 24.495C22.695 21.69 19.285 15.255 19.285 8.655V3.155H11.915V8.6C11.915 15.805 8.395 22.845 0.035 25.65L3.83 31.315C9.715 29.17 13.62 25.045 15.765 19.82C17.855 24.495 21.485 28.18 26.765 30.105L30.615 24.495ZM16.535 44.075V33.735H9.275V49.85H43.815V44.075H16.535ZM65.7007 32.965H59.2107V21.635H65.7007V32.965ZM65.7007 15.97H59.2107V4.53H52.3907V38.74H72.3557V4.53H65.7007V15.97ZM87.5357 0.0199986V19.38H83.3007V0.844998H76.5357V48.475H83.3007V25.21H87.5357V50.675H94.4107V0.0199986H87.5357ZM103.866 5.245V11.13H120.421C119.101 22.35 112.831 30.38 101.061 36.43L105.131 41.985C121.961 33.46 127.736 20.425 127.736 5.245H103.866ZM148.306 19.38H141.211V0.0199986H133.951V50.62H141.211V25.375H148.306V19.38ZM172.203 13.88C172.203 10.14 174.898 7.94 178.583 7.94C182.323 7.94 185.018 10.14 185.018 13.88C185.018 17.675 182.323 19.875 178.583 19.875C174.898 19.875 172.203 17.675 172.203 13.88ZM199.703 16.795V26.86H206.963V0.0749979H199.703V10.91H191.563C190.188 5.52 185.073 1.945 178.583 1.945C170.993 1.945 165.273 6.95 165.273 13.88C165.273 20.865 170.993 25.87 178.583 25.87C185.073 25.87 190.243 22.24 191.618 16.795H199.703ZM181.993 44.735H176.878V39.95H181.993V44.735ZM203.663 29.335H196.513V33.13C196.513 37.695 194.203 42.37 188.648 44.955V29.775H181.993V34.725H176.878V29.775H170.168V50.125H188.648V46.33L191.508 50.675C195.578 49.08 198.328 46.22 199.978 42.755C201.628 46.275 204.433 49.135 208.668 50.675L212.243 45.285C206.083 43.14 203.663 38.355 203.663 33.13V29.335ZM229.069 33.185C225.384 33.185 222.909 29.17 222.909 21.635C222.909 14.155 225.384 10.14 229.069 10.14C232.809 10.14 235.284 14.155 235.284 21.635C235.284 29.17 232.809 33.185 229.069 33.185ZM250.464 0.0199986V18.28H241.994C241.004 9.15 235.889 3.595 229.069 3.595C221.534 3.595 215.979 10.525 215.979 21.635C215.979 32.8 221.534 39.785 229.069 39.785C236.109 39.785 241.279 33.845 242.049 24.165H250.464V50.84H257.724V0.0199986H250.464ZM292.314 39.07V28.51H306.779V22.68H278.454V9.37H306.394V3.54H271.139V28.51H285.054V39.07H265.804V45.01H311.674V39.07H292.314ZM318.655 57.715C325.31 55.515 329.05 50.62 329.05 44.185C329.05 39.18 326.96 36.21 323.22 36.21C320.36 36.21 317.995 38.08 317.995 40.995C317.995 44.075 320.415 45.78 323.055 45.78C323.22 45.78 323.385 45.78 323.55 45.78C323.605 48.86 321.24 51.72 316.95 53.315L318.655 57.715ZM4.82 101.305C14.335 100.37 20.55 96.74 23.245 91.845C25.885 96.74 32.155 100.37 41.615 101.305L44.2 95.64C34.575 94.815 29.625 91.24 28.47 87.665H42V81.945H4.49V87.665H18.02C16.865 91.24 11.86 94.76 2.345 95.64L4.82 101.305ZM5.425 119.84H33.365V130.785H40.625V114.12H5.425V119.84ZM26.82 104.66V98.17H19.56V104.66H0.365V110.49H46.18V104.66H26.82ZM63.0057 96.795H84.6757V103.89H63.0057V96.795ZM77.4707 118.96V109.665H91.8257V83.21H84.6757V91.075H63.0057V83.21H55.8007V109.665H70.2107V118.96H50.9607V124.845H96.8307V118.96H77.4707ZM103.866 85.245V91.13H120.421C119.101 102.35 112.831 110.38 101.061 116.43L105.131 121.985C121.961 113.46 127.736 100.425 127.736 85.245H103.866ZM148.306 99.38H141.211V80.02H133.951V130.62H141.211V105.375H148.306V99.38ZM172.203 93.88C172.203 90.14 174.898 87.94 178.583 87.94C182.323 87.94 185.018 90.14 185.018 93.88C185.018 97.675 182.323 99.875 178.583 99.875C174.898 99.875 172.203 97.675 172.203 93.88ZM199.703 96.795V106.86H206.963V80.075H199.703V90.91H191.563C190.188 85.52 185.073 81.945 178.583 81.945C170.993 81.945 165.273 86.95 165.273 93.88C165.273 100.865 170.993 105.87 178.583 105.87C185.073 105.87 190.243 102.24 191.618 96.795H199.703ZM181.993 124.735H176.878V119.95H181.993V124.735ZM203.663 109.335H196.513V113.13C196.513 117.695 194.203 122.37 188.648 124.955V109.775H181.993V114.725H176.878V109.775H170.168V130.125H188.648V126.33L191.508 130.675C195.578 129.08 198.328 126.22 199.978 122.755C201.628 126.275 204.433 129.135 208.668 130.675L212.243 125.285C206.083 123.14 203.663 118.355 203.663 113.13V109.335ZM229.069 113.185C225.384 113.185 222.909 109.17 222.909 101.635C222.909 94.155 225.384 90.14 229.069 90.14C232.809 90.14 235.284 94.155 235.284 101.635C235.284 109.17 232.809 113.185 229.069 113.185ZM250.464 80.02V98.28H241.994C241.004 89.15 235.889 83.595 229.069 83.595C221.534 83.595 215.979 90.525 215.979 101.635C215.979 112.8 221.534 119.785 229.069 119.785C236.109 119.785 241.279 113.845 242.049 104.165H250.464V130.84H257.724V80.02H250.464ZM292.314 119.07V108.51H306.779V102.68H278.454V89.37H306.394V83.54H271.139V108.51H285.054V119.07H265.804V125.01H311.674V119.07H292.314ZM318.655 137.715C325.31 135.515 329.05 130.62 329.05 124.185C329.05 119.18 326.96 116.21 323.22 116.21C320.36 116.21 317.995 118.08 317.995 120.995C317.995 124.075 320.415 125.78 323.055 125.78C323.22 125.78 323.385 125.78 323.55 125.78C323.605 128.86 321.24 131.72 316.95 133.315L318.655 137.715ZM33.145 172.56H13.4V169.59H33.145V172.56ZM40.35 160.955H33.145V164.31H13.4V160.955H6.195V177.895H40.35V160.955ZM12.85 202.095H40.57V189.225H5.59V194.56H33.42V197.145H5.645V210.345H41.89V204.955H12.85V202.095ZM0.365 180.645V186.365H46.125V180.645H0.365ZM59.3757 184.44H70.2107V165.025H52.2807V170.8H63.1707V178.72H52.3357V198.905H55.9107C62.2357 198.905 67.8457 198.74 74.3907 197.585L73.7857 191.755C68.6707 192.58 64.1607 192.855 59.3757 192.965V184.44ZM77.2507 177.29H72.2457V183.23H77.2507V208.365H83.9607V160.955H77.2507V177.29ZM87.5357 160.02V210.675H94.4107V160.02H87.5357ZM145.831 183.89C134.391 181.965 128.121 174.1 128.121 166.675V163.045H120.366V166.675C120.366 173.935 114.041 181.965 102.656 183.89L105.736 189.995C114.536 188.29 120.971 183.34 124.216 176.905C127.461 183.34 133.951 188.235 142.751 189.995L145.831 183.89ZM101.556 198.685V204.57H147.426V198.685H101.556ZM179.243 194.45C175.833 194.45 173.303 192.14 173.303 188.29C173.303 184.44 175.833 182.075 179.243 182.075C182.653 182.075 185.128 184.44 185.128 188.235C185.128 192.14 182.653 194.45 179.243 194.45ZM179.243 176.19C171.873 176.19 166.373 181.195 166.373 188.235C166.373 195.385 171.873 200.39 179.243 200.39C186.558 200.39 192.003 195.385 192.003 188.235C192.003 181.195 186.558 176.19 179.243 176.19ZM182.818 160.955H175.558V167.555H164.338V173.33H193.818V167.555H182.818V160.955ZM211.638 179.875H204.378V160.075H197.118V210.73H204.378V185.87H211.638V179.875ZM224.009 164.86H216.749V198.3H221.149C228.519 198.3 236.659 197.86 245.074 196.1L244.359 190.16C237.264 191.535 230.389 192.085 224.009 192.25V164.86ZM261.959 179.16H254.864V160.02H247.604V210.62H254.864V185.155H261.959V179.16ZM284.669 183.175H275.044V169.81H284.669V183.175ZM300.894 173.825V178.94H291.764V173.825H300.894ZM291.764 184.715H300.894V196.98H308.154V160.075H300.894V168.05H291.764V164.145H267.894V188.895H291.764V184.715ZM281.974 204.075V193.515H274.714V209.85H309.254V204.075H281.974ZM333.481 182.9C342.941 181.855 349.156 177.95 351.741 172.78C354.436 177.95 360.596 181.855 370.001 182.9L372.641 177.235C362.741 176.135 357.736 172.065 356.911 167.995H370.551V162.22H333.041V167.995H346.626C345.746 172.01 340.686 176.135 330.896 177.235L333.481 182.9ZM341.401 195.275H334.141V209.85H369.616V204.075H341.401V195.275ZM328.806 185.32V191.04H348.771V199.62H356.031V191.04H374.731V185.32H328.806ZM414.162 160.02V210.84H421.422V160.02H414.162ZM381.932 164.09V199.015H406.902V164.09H399.697V176.355H389.137V164.09H381.932ZM389.137 182.02H399.697V193.24H389.137V182.02ZM451.753 172.395C451.753 169.315 454.118 167.555 457.583 167.555C461.048 167.555 463.523 169.315 463.523 172.395C463.523 175.475 461.048 177.235 457.583 177.235C454.118 177.235 451.753 175.475 451.753 172.395ZM472.763 184.935C469.133 185.485 465.173 185.76 461.268 185.98V182.35C466.658 181.14 470.233 177.345 470.233 172.395C470.233 166.345 464.953 162.11 457.583 162.11C450.268 162.11 444.988 166.345 444.988 172.395C444.988 177.4 448.618 181.195 454.008 182.35V186.255C449.828 186.365 445.813 186.365 442.348 186.365L443.228 192.14C451.588 192.14 462.973 191.975 473.203 190.05L472.763 184.935ZM456.208 195.44H448.948V209.85H484.368V204.075H456.208V195.44ZM482.663 175.97V160.075H475.403V198.74H482.663V181.965H489.043V175.97H482.663ZM511.864 191.48H520.719V199.235H511.864V191.48ZM527.869 199.235V191.48H534.964V185.705H505.594V180.15H533.809V163.32H498.334V169.095H526.659V174.485H498.389V191.48H504.714V199.235H493.054V205.175H538.979V199.235H527.869ZM548.875 192.14H554.155L555.31 171.845L555.585 164.2H547.445L547.72 171.845L548.875 192.14ZM551.515 206.77C554.375 206.77 556.575 204.46 556.575 201.49C556.575 198.465 554.375 196.21 551.515 196.21C548.655 196.21 546.51 198.465 546.51 201.49C546.51 204.46 548.655 206.77 551.515 206.77Z" fill="black"/>
</svg>
