<svg width="490" height="84" viewBox="0 0 490 84" fill="none" xmlns="http://www.w3.org/2000/svg">
<path d="M12.895 30.455C16.43 30.455 19.335 29.16 21.05 27.445V16.28H12.265V19.605H17.375V25.66C16.465 26.465 14.89 26.92 13.315 26.92C7.995 26.92 5.16 23.175 5.16 17.05C5.16 10.995 8.345 7.285 13.14 7.285C15.625 7.285 17.2 8.3 18.495 9.595L20.665 7.005C19.09 5.36 16.64 3.75 13 3.75C6.175 3.75 0.995 8.79 0.995 17.19C0.995 25.625 6.035 30.455 12.895 30.455ZM26.936 30H30.996V20.235H34.881C40.481 20.235 44.576 17.645 44.576 12.01C44.576 6.2 40.481 4.205 34.741 4.205H26.936V30ZM30.996 16.98V7.495H34.356C38.451 7.495 40.586 8.615 40.586 12.01C40.586 15.405 38.626 16.98 34.496 16.98H30.996ZM53.9927 30H58.0527V7.635H65.6477V4.205H46.4327V7.635H53.9927V30ZM78.1413 4.415V7.355H89.4113C88.7813 14.635 84.8613 20.2 76.5663 24.19L78.4913 27.06C89.3413 21.81 93.1213 13.83 93.1213 4.415H78.1413ZM98.8263 1.09V32.695H102.431V1.09H98.8263ZM120.979 16.315H113.244V11.1H120.979V16.315ZM124.549 3.365H120.979V8.3H113.244V3.365H109.639V19.22H124.549V3.365ZM116.849 22.09H113.209V32.1H134.489V29.16H116.849V22.09ZM133.229 10.4V1.125H129.624V24.33H133.229V13.375H137.709V10.4H133.229ZM428.4 4.975C433.02 4.975 435.925 6.27 435.925 8.475C435.925 10.715 433.02 12.01 428.4 12.01C423.745 12.01 420.84 10.715 420.84 8.475C420.84 6.27 423.745 4.975 428.4 4.975ZM428.4 14.915C435.225 14.915 439.67 12.5 439.67 8.475C439.67 4.485 435.225 2.07 428.4 2.07C421.575 2.07 417.13 4.485 417.13 8.475C417.13 12.5 421.575 14.915 428.4 14.915ZM421.33 22.895H417.69V32.1H439.495V29.16H421.33V22.895ZM414.085 17.47V20.41H442.68V17.47H414.085ZM11.075 70.01C12.3 70.29 13.665 70.43 15.065 70.43C16.465 70.43 17.83 70.29 19.055 69.975V76.87H11.075V70.01ZM15.065 56.745C19.825 56.745 23.15 58.845 23.15 62.17C23.15 65.53 19.825 67.63 15.065 67.63C10.27 67.63 6.945 65.53 6.945 62.17C6.945 58.845 10.27 56.745 15.065 56.745ZM22.66 76.87V68.645C25.18 67.21 26.685 64.97 26.685 62.17C26.685 57.13 21.785 53.91 15.065 53.91C8.31 53.91 3.445 57.13 3.445 62.17C3.445 64.97 4.95 67.245 7.47 68.645V76.87H0.785V79.81H29.415V76.87H22.66ZM36.9023 61.505C36.9023 58.74 38.9673 56.955 41.7673 56.955C44.6023 56.955 46.6673 58.74 46.6673 61.505C46.6673 64.27 44.6023 66.055 41.7673 66.055C38.9673 66.055 36.9023 64.27 36.9023 61.505ZM50.2023 61.505C50.2023 57.025 46.5973 53.91 41.7673 53.91C36.9723 53.91 33.3673 57.025 33.3673 61.505C33.3673 65.985 36.9723 69.1 41.7673 69.1C46.5973 69.1 50.2023 65.985 50.2023 61.505ZM36.8673 75.12H54.0523V83.73H57.6573V72.215H36.8673V75.12ZM62.0323 59.58V56.605H57.6573V52.09H54.0523V70.815H57.6573V66.37H62.0323V63.395H57.6573V59.58H62.0323ZM72.3895 74.245H68.7495V83.1H90.5545V80.16H72.3895V74.245ZM72.4245 59.685H86.4945V63.185H72.4245V59.685ZM81.2445 69.1V66.055H90.0645V53.315H86.4945V56.885H72.4245V53.315H68.8545V66.055H77.6045V69.1H65.1095V72.005H93.7745V69.1H81.2445ZM111.657 53.875C105.042 53.875 100.037 57.445 100.037 62.8C100.037 68.19 105.042 71.725 111.657 71.725C118.237 71.725 123.277 68.19 123.277 62.8C123.277 57.445 118.237 53.875 111.657 53.875ZM111.657 56.85C116.312 56.85 119.777 59.16 119.777 62.8C119.777 66.44 116.312 68.75 111.657 68.75C106.967 68.75 103.537 66.44 103.537 62.8C103.537 59.16 106.967 56.85 111.657 56.85ZM97.3768 76.73V79.705H126.007V76.73H97.3768ZM145.639 77.01V71.62H155.509V68.715H136.574V64.305H154.809V54.295H132.969V57.2H151.239V61.435H133.039V71.62H142.034V77.01H129.574V79.985H158.204V77.01H145.639ZM190.493 67.07C189.233 67.21 188.008 67.35 186.713 67.42C187.763 62.065 187.763 58.425 187.763 55.94V54.295H172.153V57.235H184.228C184.228 58.18 184.193 59.265 184.088 60.49L171.418 61.085L171.943 64.13L183.843 63.15C183.703 64.515 183.423 65.985 183.073 67.63C178.313 67.91 173.588 67.945 169.423 67.945L169.878 70.92C172.328 70.92 175.023 70.885 177.823 70.78V81.945H181.463V70.64C184.578 70.465 187.693 70.185 190.703 69.765L190.493 67.07ZM192.488 52.09V83.695H196.093V52.09H192.488ZM204.525 71.655C209.635 70.675 214.08 67.7 216.11 63.605C218.175 67.665 222.655 70.535 227.835 71.515L229.305 68.645C223.04 67.7 218 63.43 218 58.67V57.935H228.045V54.995H204.175V57.935H214.22V58.67C214.22 63.43 209.215 67.77 203.055 68.785L204.525 71.655ZM201.83 76.765V79.705H230.46V76.765H201.83ZM255.482 57.48H237.667V64.585H259.612V62.065H241.202V59.825H259.052V52.86H237.597V55.345H255.482V57.48ZM240.957 78.445H259.157V71.375H237.317V73.86H255.587V76.1H237.387V83.345H260.102V80.86H240.957V78.445ZM233.992 66.58V69.24H262.657V66.58H233.992ZM286.441 66.825H278.741V57.69H286.441V66.825ZM289.976 54.785H275.171V69.73H289.976V54.785ZM282.381 72.985H278.741V83.1H300.021V80.16H282.381V72.985ZM298.761 61.47V52.055H295.156V75.225H298.761V64.445H303.241V61.47H298.761ZM331.518 59.79H313.528V55.835H331.203V52.93H309.958V62.695H331.518V59.79ZM313.283 77.92H331.273V70.08H309.643V72.845H327.738V75.295H309.713V83.38H332.183V80.58H313.283V77.92ZM306.318 64.865V67.77H334.913V64.865H306.318ZM373.677 63.745C367.307 62.835 362.547 58.88 362.547 54.785V53.105H358.732V54.785C358.732 58.95 354.042 62.835 347.602 63.745L349.002 66.65C354.252 65.81 358.627 63.185 360.657 59.51C362.722 63.15 367.027 65.81 372.277 66.65L373.677 63.745ZM374.902 69.625H346.342V72.565H358.732V83.73H362.337V72.565H374.902V69.625ZM412.44 52.125H408.835V70.08H412.44V52.125ZM395.395 56.815C398.195 56.815 400.26 58.6 400.26 61.295C400.26 64.025 398.195 65.775 395.395 65.775C392.595 65.775 390.53 64.025 390.53 61.295C390.53 58.6 392.595 56.815 395.395 56.815ZM395.395 68.75C400.225 68.75 403.76 65.705 403.76 61.295C403.76 56.885 400.225 53.84 395.395 53.84C390.565 53.84 386.995 56.885 386.995 61.295C386.995 65.705 390.565 68.75 395.395 68.75ZM409.08 71.445H405.545V72.845C405.545 75.225 404.215 78.2 401.415 80.09C398.65 78.34 397.425 75.505 397.425 72.845V71.445H393.925V72.845C393.925 75.925 391.825 79.18 387.8 80.615L389.55 83.275C392.49 82.19 394.52 80.16 395.675 77.675C396.655 80.23 398.51 82.4 401.485 83.555C404.355 82.365 406.245 80.09 407.26 77.605C408.345 80.16 410.41 82.19 413.455 83.275L415.24 80.615C411.145 79.285 409.08 76.1 409.08 72.845V71.445ZM427.102 73.475C424.408 73.475 422.553 70.535 422.553 65.53C422.553 60.63 424.408 57.655 427.102 57.655C429.833 57.655 431.688 60.63 431.688 65.53C431.688 70.535 429.833 73.475 427.102 73.475ZM441.208 52.055V63.85H435.048C434.558 58.04 431.338 54.4 427.102 54.4C422.448 54.4 419.122 58.74 419.122 65.53C419.122 72.39 422.448 76.695 427.102 76.695C431.443 76.695 434.663 72.915 435.083 66.79H441.208V83.765H444.848V52.055H441.208ZM461.085 70.01C462.31 70.29 463.675 70.43 465.075 70.43C466.475 70.43 467.84 70.29 469.065 69.975V76.87H461.085V70.01ZM465.075 56.745C469.835 56.745 473.16 58.845 473.16 62.17C473.16 65.53 469.835 67.63 465.075 67.63C460.28 67.63 456.955 65.53 456.955 62.17C456.955 58.845 460.28 56.745 465.075 56.745ZM472.67 76.87V68.645C475.19 67.21 476.695 64.97 476.695 62.17C476.695 57.13 471.795 53.91 465.075 53.91C458.32 53.91 453.455 57.13 453.455 62.17C453.455 64.97 454.96 67.245 457.48 68.645V76.87H450.795V79.81H479.425V76.87H472.67ZM485.862 72.775H488.557L489.117 58.775L489.257 54.61H485.197L485.302 58.775L485.862 72.775ZM487.192 81.455C488.732 81.455 489.922 80.3 489.922 78.655C489.922 76.975 488.732 75.785 487.192 75.785C485.687 75.785 484.532 76.975 484.532 78.655C484.532 80.3 485.687 81.455 487.192 81.455Z" fill="black"/>
<path d="M169.192 8.72H156.627V6.83H169.192V8.72ZM173.777 1.335H169.192V3.47H156.627V1.335H152.042V12.115H173.777V1.335ZM156.277 27.515H173.917V19.325H151.657V22.72H169.367V24.365H151.692V32.765H174.757V29.335H156.277V27.515ZM148.332 13.865V17.505H177.452V13.865H148.332ZM185.884 16.28H192.779V3.925H181.369V7.6H188.299V12.64H181.404V25.485H183.679C187.704 25.485 191.274 25.38 195.439 24.645L195.054 20.935C191.799 21.46 188.929 21.635 185.884 21.705V16.28ZM197.259 11.73H194.074V15.51H197.259V31.505H201.529V1.335H197.259V11.73ZM203.804 0.739999V32.975H208.179V0.739999H203.804ZM240.902 15.93C233.622 14.705 229.632 9.7 229.632 4.975V2.665H224.697V4.975C224.697 9.595 220.672 14.705 213.427 15.93L215.387 19.815C220.987 18.73 225.082 15.58 227.147 11.485C229.212 15.58 233.342 18.695 238.942 19.815L240.902 15.93ZM212.727 25.345V29.09H241.917V25.345H212.727ZM255.284 2.91C250.244 2.91 246.429 6.235 246.429 10.855C246.429 15.51 250.244 18.8 255.284 18.8C260.324 18.8 264.174 15.51 264.174 10.855C264.174 6.235 260.324 2.91 255.284 2.91ZM255.284 6.865C257.769 6.865 259.659 8.335 259.659 10.855C259.659 13.375 257.769 14.845 255.284 14.845C252.799 14.845 250.909 13.375 250.909 10.855C250.909 8.335 252.799 6.865 255.284 6.865ZM267.184 0.739999V33.08H271.804V0.739999H267.184ZM245.659 26.535C251.224 26.535 258.784 26.465 265.714 25.065L265.434 21.74C258.644 22.755 250.734 22.79 245.064 22.79L245.659 26.535ZM311.826 0.809998H307.171V23.945H311.826V0.809998ZM290.021 11.03C290.021 8.37 291.911 6.83 294.291 6.83C296.706 6.83 298.526 8.37 298.526 11.03C298.526 13.62 296.706 15.195 294.291 15.195C291.911 15.195 290.021 13.62 290.021 11.03ZM303.041 11.03C303.041 6.27 299.226 2.84 294.291 2.84C289.356 2.84 285.506 6.27 285.506 11.03C285.506 15.72 289.356 19.185 294.291 19.185C299.226 19.185 303.041 15.72 303.041 11.03ZM294.991 28.775V21.67H290.371V32.45H312.631V28.775H294.991ZM341.993 13.48C342.903 10.155 342.903 7.425 342.903 4.87V2.21H320.573V5.85H338.283C338.283 7.985 338.178 10.155 337.443 13.025L341.993 13.48ZM331.633 29.545C327.293 29.545 324.808 28.67 324.808 26.955C324.808 25.205 327.293 24.33 331.633 24.33C336.008 24.33 338.493 25.205 338.493 26.955C338.493 28.67 336.008 29.545 331.633 29.545ZM331.633 20.865C324.703 20.865 320.223 23.175 320.223 26.955C320.223 30.7 324.703 33.01 331.633 33.01C338.598 33.01 343.078 30.7 343.078 26.955C343.078 23.175 338.598 20.865 331.633 20.865ZM332.683 15.195V9.56H328.063V15.195H317.318V18.835H346.333V15.195H332.683ZM361.905 7.67H368.555V3.855H350.495V7.67H357.215V9.455C357.215 14.95 354.59 20.865 349.2 23.28L351.825 26.955C355.605 25.24 358.195 21.705 359.63 17.505C361.065 21.39 363.62 24.54 367.365 26.15L369.885 22.51C364.495 20.27 361.905 14.705 361.905 9.455V7.67ZM371.53 0.774999V33.01H376.15V0.774999H371.53ZM407.578 8.79H389.938V1.335H385.318V12.465H407.578V8.79ZM396.133 29.405C391.828 29.405 389.623 28.635 389.623 26.955C389.623 25.275 391.828 24.505 396.133 24.505C400.438 24.505 402.643 25.275 402.643 26.955C402.643 28.635 400.438 29.405 396.133 29.405ZM396.133 20.97C389.168 20.97 384.968 23.175 384.968 26.955C384.968 30.735 389.168 32.94 396.133 32.94C403.098 32.94 407.333 30.735 407.333 26.955C407.333 23.175 403.098 20.97 396.133 20.97ZM381.678 15.195V18.87H410.833V15.195H381.678Z" fill="#1E70F6"/>
</svg>
