<svg width="60" height="60" viewBox="0 0 60 60" fill="none" xmlns="http://www.w3.org/2000/svg">
<path d="M60 30C60 37.9565 56.8393 45.5871 51.2132 51.2132C45.5871 56.8393 37.9565 60 30 60C22.0435 60 14.4129 56.8393 8.7868 51.2132C3.16071 45.5871 0 37.9565 0 30C0 22.0435 3.16071 14.4129 8.7868 8.7868C14.4129 3.16071 22.0435 0 30 0C37.9565 0 45.5871 3.16071 51.2132 8.7868C56.8393 14.4129 60 22.0435 60 30ZM20.61 22.6238H23.7038C24.2213 22.6238 24.6337 22.2 24.7013 21.6863C25.0387 19.2262 26.7262 17.4338 29.7337 17.4338C32.3062 17.4338 34.6613 18.72 34.6613 21.8137C34.6613 24.195 33.2588 25.29 31.0425 26.955C28.5187 28.7888 26.52 30.93 26.6625 34.4062L26.6737 35.22C26.6777 35.466 26.7782 35.7007 26.9536 35.8732C27.129 36.0458 27.3652 36.1425 27.6112 36.1425H30.6525C30.9011 36.1425 31.1396 36.0437 31.3154 35.8679C31.4912 35.6921 31.59 35.4536 31.59 35.205V34.8112C31.59 32.1188 32.6138 31.335 35.3775 29.2388C37.6613 27.5025 40.0425 25.575 40.0425 21.5288C40.0425 15.8625 35.2575 13.125 30.0188 13.125C25.2675 13.125 20.0625 15.3375 19.7063 21.6975C19.7011 21.8186 19.7208 21.9395 19.7641 22.0527C19.8074 22.1659 19.8734 22.2691 19.9581 22.3558C20.0427 22.4426 20.1442 22.5111 20.2563 22.5572C20.3685 22.6032 20.4888 22.6259 20.61 22.6238ZM29.3288 46.785C31.6163 46.785 33.1875 45.3075 33.1875 43.3088C33.1875 41.2388 31.6125 39.7838 29.3288 39.7838C27.1388 39.7838 25.545 41.2388 25.545 43.3088C25.545 45.3075 27.135 46.785 29.3288 46.785Z" fill="#1E70F6"/>
</svg>
