<svg width="545" height="131" viewBox="0 0 545 131" fill="none" xmlns="http://www.w3.org/2000/svg">
<path d="M82.7184 22.845C74.7984 20.315 71.2784 14.485 71.1134 8.82H81.0134V3.045H53.6784V8.82H63.7434C63.5784 15.035 59.9484 21.305 51.7534 23.89L55.3284 29.665C61.2684 27.74 65.3384 23.78 67.5934 18.885C69.8484 23.34 73.6984 26.805 79.2534 28.565L82.7184 22.845ZM66.6584 37.09H85.3584V44.46H66.6584V37.09ZM59.5084 50.125H92.4534V31.425H59.5084V50.125ZM99.1634 11.515H92.4534V0.129997H85.1934V29.39H92.4534V17.455H99.1634V11.515ZM121.049 32.305C130.014 24.715 132.214 15.86 132.214 4.145H119.839V9.92H125.449C124.789 17.51 122.314 22.68 116.374 27.795L121.049 32.305ZM104.549 4.145V9.92H111.204C110.489 16.905 108.014 21.305 102.514 25.76L107.189 30.27C115.604 23.34 118.079 15.255 118.079 4.145H104.549ZM117.089 33.9H109.829V49.85H144.754V44.075H117.089V33.9ZM143.049 15.365V0.0749979H135.789V37.035H143.049V21.305H149.759V15.365H143.049ZM197.801 21.36C190.101 19.105 186.361 13.88 185.976 8.545H195.931V2.825H168.376V8.545H178.496C178.111 14.265 174.426 19.765 166.396 22.13L170.026 27.85C175.966 26.035 180.036 22.24 182.346 17.51C184.656 21.855 188.561 25.32 194.281 26.97L197.801 21.36ZM201.101 44.35H181.851V39.895H201.101V44.35ZM201.101 34.34H181.851V29.72H174.646V50.125H208.306V29.72H201.101V34.34ZM200.991 0.129997V27.575H208.306V0.129997H200.991ZM221.226 21.085C230.796 20.26 237.011 16.685 239.706 11.9C242.401 16.685 248.616 20.26 258.131 21.085L260.661 15.475C251.201 14.65 246.251 11.35 244.986 7.94H258.461V2.165H221.006V7.94H234.426C233.161 11.35 228.211 14.65 218.806 15.475L221.226 21.085ZM249.826 41.6C249.826 44.13 246.361 45.23 239.596 45.23C232.831 45.23 229.366 44.13 229.366 41.6C229.366 39.015 232.831 37.915 239.596 37.915C246.361 37.915 249.826 39.015 249.826 41.6ZM262.586 28.84V23.065H216.826V28.84H236.076V32.525C227.276 33.24 222.051 36.375 222.051 41.6C222.051 47.43 228.651 50.73 239.596 50.73C250.541 50.73 257.196 47.43 257.196 41.6C257.196 36.43 252.026 33.295 243.336 32.58V28.84H262.586ZM290.302 6.125C297.672 6.125 301.137 7.17 301.137 9.425C301.137 11.79 297.672 12.78 290.302 12.78C282.987 12.78 279.522 11.79 279.522 9.425C279.522 7.17 282.987 6.125 290.302 6.125ZM290.302 18.06C301.907 18.06 308.672 15.035 308.672 9.425C308.672 3.87 301.907 0.789999 290.302 0.789999C278.752 0.789999 271.987 3.87 271.987 9.425C271.987 15.035 278.752 18.06 290.302 18.06ZM279.907 42.04H307.627V29.005H272.647V34.34H300.477V37.035H272.702V50.345H308.947V44.9H279.907V42.04ZM267.422 20.48V26.145H313.182V20.48H267.422ZM357.044 32.25H349.619V33.185C349.619 38.41 344.724 43.58 333.449 44.955L336.144 50.51C344.394 49.41 350.279 46.165 353.359 41.6C356.384 46.165 362.269 49.41 370.519 50.51L373.159 44.955C361.994 43.58 357.044 38.41 357.044 33.185V32.25ZM343.239 7.72H363.314V13.99H343.239V7.72ZM356.989 24.165V19.655H370.464V2.055H336.089V19.655H349.729V24.165H330.479V29.885H376.239V24.165H356.989ZM393.229 33.79C390.479 33.79 388.499 31.59 388.499 27.795C388.499 24 390.479 21.745 393.229 21.745C395.979 21.745 397.959 24 397.959 27.795C397.959 31.59 395.979 33.79 393.229 33.79ZM393.229 15.695C386.739 15.695 382.119 20.7 382.119 27.795C382.119 34.835 386.739 39.84 393.229 39.84C399.719 39.84 404.339 34.835 404.339 27.795C404.339 20.7 399.719 15.695 393.229 15.695ZM396.804 1.45H389.654V7.72H381.019V13.495H405.219V7.72H396.804V1.45ZM417.649 0.0199986V20.7H413.799V1.01H407.034V48.585H413.799V26.53H417.649V50.675H424.524V0.0199986H417.649ZM458.18 39.07V28.51H472.645V22.68H444.32V9.37H472.26V3.54H437.005V28.51H450.92V39.07H431.67V45.01H477.54V39.07H458.18ZM484.521 57.715C491.176 55.515 494.916 50.62 494.916 44.185C494.916 39.18 492.826 36.21 489.086 36.21C486.226 36.21 483.861 38.08 483.861 40.995C483.861 44.075 486.281 45.78 488.921 45.78C489.086 45.78 489.251 45.78 489.416 45.78C489.471 48.86 487.106 51.72 482.816 53.315L484.521 57.715ZM33.5273 92.56H13.7823V89.59H33.5273V92.56ZM40.7323 80.955H33.5273V84.31H13.7823V80.955H6.57732V97.895H40.7323V80.955ZM13.2323 122.095H40.9523V109.225H5.97232V114.56H33.8023V117.145H6.02732V130.345H42.2723V124.955H13.2323V122.095ZM0.747324 100.645V106.365H46.5073V100.645H0.747324ZM59.758 104.44H70.593V85.025H52.663V90.8H63.553V98.72H52.718V118.905H56.293C62.618 118.905 68.228 118.74 74.773 117.585L74.168 111.755C69.053 112.58 64.543 112.855 59.758 112.965V104.44ZM77.633 97.29H72.628V103.23H77.633V128.365H84.343V80.955H77.633V97.29ZM87.918 80.02V130.675H94.793V80.02H87.918ZM146.214 103.89C134.774 101.965 128.504 94.1 128.504 86.675V83.045H120.749V86.675C120.749 93.935 114.424 101.965 103.039 103.89L106.119 109.995C114.919 108.29 121.354 103.34 124.599 96.905C127.844 103.34 134.334 108.235 143.134 109.995L146.214 103.89ZM101.939 118.685V124.57H147.809V118.685H101.939ZM193.344 93.77H165.459V81.89H158.199V99.545H193.344V93.77ZM165.019 114.56H157.704V129.63H193.619V123.855H165.019V114.56ZM152.534 104.715V110.545H198.404V104.715H152.534ZM256.401 93.55H228.461V87.115H256.016V81.34H221.256V99.325H256.401V93.55ZM228.241 117.97H256.071V112.195H221.036V130.125H256.566V124.35H228.241V117.97ZM215.646 102.79V108.565H261.461V102.79H215.646ZM305.622 113.515C307.657 102.735 307.657 95.585 307.657 89.26V84.42H270.862V90.195H300.397C300.397 96.08 300.287 103.12 298.362 112.69L305.622 113.515ZM289.672 118.795V101.36H282.412V118.795H266.242V124.625H312.057V118.795H289.672ZM371.318 80.075H364.003V108.73H371.318V80.075ZM343.708 88.71C347.558 88.71 350.418 91.02 350.418 94.815C350.418 98.61 347.558 100.92 343.708 100.92C339.858 100.92 337.053 98.61 337.053 94.815C337.053 91.02 339.858 88.71 343.708 88.71ZM343.708 106.97C351.628 106.97 357.513 101.91 357.513 94.815C357.513 87.72 351.628 82.66 343.708 82.66C335.898 82.66 329.958 87.72 329.958 94.815C329.958 101.91 335.898 106.97 343.708 106.97ZM366.203 110.82H359.053V112.525C359.053 116.265 357.348 120.5 353.278 123.525C349.263 120.72 347.668 116.54 347.668 112.525V110.82H340.628V112.525C340.628 117.42 337.878 122.425 331.168 124.68L334.743 129.96C339.308 128.31 342.388 125.34 344.148 121.655C345.798 125.505 348.713 128.805 353.333 130.51C357.953 128.695 360.868 125.34 362.518 121.49C364.223 125.34 367.358 128.365 372.143 129.96L375.663 124.68C368.953 122.645 366.203 117.75 366.203 112.525V110.82ZM402.719 82.605C392.104 82.605 383.854 88.435 383.854 97.29C383.854 106.09 392.104 111.92 402.719 111.92C413.389 111.92 421.639 106.09 421.639 97.29C421.639 88.435 413.389 82.605 402.719 82.605ZM402.719 88.545C409.649 88.545 414.544 91.79 414.544 97.29C414.544 102.68 409.649 105.98 402.719 105.98C395.844 105.98 390.949 102.68 390.949 97.29C390.949 91.79 395.844 88.545 402.719 88.545ZM379.839 118.74V124.68H425.709V118.74H379.839ZM440.28 84.86H433.075V118.245H437.585C445.285 118.245 453.7 117.695 462.335 115.88L461.565 109.83C454.14 111.315 446.935 111.865 440.28 112.03V84.86ZM465.47 80.02V130.675H472.73V80.02H465.47ZM498.906 112.305C507.871 104.715 510.071 95.86 510.071 84.145H497.696V89.92H503.306C502.646 97.51 500.171 102.68 494.231 107.795L498.906 112.305ZM482.406 84.145V89.92H489.061C488.346 96.905 485.871 101.305 480.371 105.76L485.046 110.27C493.461 103.34 495.936 95.255 495.936 84.145H482.406ZM494.946 113.9H487.686V129.85H522.611V124.075H494.946V113.9ZM520.906 95.365V80.075H513.646V117.035H520.906V101.305H527.616V95.365H520.906ZM536.796 112.14H542.076L543.231 91.845L543.506 84.2H535.366L535.641 91.845L536.796 112.14ZM539.436 126.77C542.296 126.77 544.496 124.46 544.496 121.49C544.496 118.465 542.296 116.21 539.436 116.21C536.576 116.21 534.431 118.465 534.431 121.49C534.431 124.46 536.576 126.77 539.436 126.77Z" fill="black"/>
</svg>
