<svg width="571" height="83" viewBox="0 0 571 83" fill="none" xmlns="http://www.w3.org/2000/svg">
<path d="M8.18062 21.475C5.48563 21.475 3.63063 18.535 3.63063 13.53C3.63063 8.63 5.48563 5.655 8.18062 5.655C10.9106 5.655 12.7656 8.63 12.7656 13.53C12.7656 18.535 10.9106 21.475 8.18062 21.475ZM22.2856 0.0549992V11.85H16.1256C15.6356 6.04 12.4156 2.4 8.18062 2.4C3.52563 2.4 0.200625 6.74 0.200625 13.53C0.200625 20.39 3.52563 24.695 8.18062 24.695C12.5206 24.695 15.7406 20.915 16.1606 14.79H22.2856V31.765H25.9256V0.0549992H22.2856ZM36.5279 14.58H46.8529V2.82H32.9229V5.725H43.3179V11.675H32.9929V24.52H35.4079C40.3079 24.52 44.3679 24.415 49.1629 23.645L48.8829 20.67C44.5429 21.335 40.8329 21.51 36.5279 21.545V14.58ZM54.4479 0.0199976V7.055H48.6729V9.995H54.4479V15.665H48.4979V18.605H54.4479V31.73H58.0529V0.0199976H54.4479ZM78.3502 3.695C82.7952 3.695 85.7002 4.99 85.7002 7.23C85.7002 9.47 82.7952 10.765 78.3502 10.765C73.8702 10.765 70.9652 9.47 70.9652 7.23C70.9652 4.99 73.8702 3.695 78.3502 3.695ZM78.3502 13.67C85.1052 13.67 89.5502 11.185 89.5502 7.23C89.5502 3.275 85.1052 0.789998 78.3502 0.789998C71.5602 0.789998 67.1502 3.275 67.1502 7.23C67.1502 11.185 71.5602 13.67 78.3502 13.67ZM71.2102 21.755H67.5702V31.1H89.5502V28.16H71.2102V21.755ZM64.0352 15.805V18.745H76.7752V24.73H80.4502V18.745H92.7002V15.805H64.0352ZM131.464 11.745C125.094 10.835 120.334 6.88 120.334 2.785V1.105H116.519V2.785C116.519 6.95 111.829 10.835 105.389 11.745L106.789 14.65C112.039 13.81 116.414 11.185 118.444 7.51C120.509 11.15 124.814 13.81 130.064 14.65L131.464 11.745ZM132.689 17.625H104.129V20.565H116.519V31.73H120.124V20.565H132.689V17.625ZM158.936 28.405H145.531V24.905H158.936V28.405ZM158.936 22.105H145.531V18.535H141.961V31.31H162.506V18.535H158.936V22.105ZM145.006 13.32C142.206 13.32 140.211 11.535 140.211 8.875C140.211 6.18 142.206 4.465 145.006 4.465C147.736 4.465 149.766 6.18 149.766 8.875C149.766 11.535 147.736 13.32 145.006 13.32ZM158.901 0.0899988V7.37H153.056C152.356 3.835 149.171 1.49 145.006 1.49C140.246 1.49 136.746 4.535 136.746 8.875C136.746 13.25 140.246 16.295 145.006 16.295C149.206 16.295 152.426 13.88 153.056 10.31H158.901V17.03H162.506V0.0899988H158.901ZM169.503 36C173.108 34.635 175.243 31.8 175.243 28.125C175.243 25.43 174.088 23.785 172.128 23.785C170.588 23.785 169.328 24.8 169.328 26.375C169.328 28.055 170.588 28.965 172.023 28.965C172.163 28.965 172.268 28.965 172.408 28.93C172.408 30.96 171.008 32.745 168.593 33.725L169.503 36ZM201.054 29.21C197.344 29.21 195.279 28.65 195.279 27.39C195.279 26.13 197.344 25.57 201.054 25.57C204.799 25.57 206.829 26.13 206.829 27.39C206.829 28.65 204.799 29.21 201.054 29.21ZM201.054 23.085C194.964 23.085 191.464 24.59 191.464 27.39C191.464 30.225 194.964 31.695 201.054 31.695C207.144 31.695 210.609 30.225 210.609 27.39C210.609 24.59 207.144 23.085 201.054 23.085ZM202.874 16.54H199.234V19.095H189.399V21.86H212.744V19.095H202.874V16.54ZM203.014 12.55V9.82H212.254V6.985H194.159V0.579999H190.554V9.82H199.409V12.55H186.739V15.455H215.439V12.55H203.014ZM230.942 8.315H237.802V5.41H230.942V0.719999H227.337V5.41H220.337V8.315H227.337V10.135C227.337 15.35 224.327 20.705 219.357 22.945L221.352 25.71C225.027 24.03 227.792 20.6 229.192 16.4C230.627 20.355 233.392 23.61 236.997 25.185L238.922 22.385C234.022 20.25 230.942 15.105 230.942 10.135V8.315ZM241.407 0.0549992V31.66H245.047V0.0549992H241.407ZM263.699 14.965H256.104V5.585H263.699V14.965ZM273.779 8.315V12.165H267.199V8.315H273.779ZM267.199 15.07H273.779V23.155H277.384V0.0899988H273.779V5.375H267.199V2.715H252.569V17.835H267.199V15.07ZM260.444 28.16V21.055H256.804V31.1H278.119V28.16H260.444ZM299.768 21.475C297.073 21.475 295.218 18.535 295.218 13.53C295.218 8.63 297.073 5.655 299.768 5.655C302.498 5.655 304.353 8.63 304.353 13.53C304.353 18.535 302.498 21.475 299.768 21.475ZM313.873 0.0549992V11.85H307.713C307.223 6.04 304.003 2.4 299.768 2.4C295.113 2.4 291.788 6.74 291.788 13.53C291.788 20.39 295.113 24.695 299.768 24.695C304.108 24.695 307.328 20.915 307.748 14.79H313.873V31.765H317.513V0.0549992H313.873ZM340.015 5.935H343.235V3.03H334.415V5.935H336.55V8.98C336.55 12.655 336.165 17.345 333.82 20.705C331.545 17.31 331.125 12.55 331.125 8.98V5.935H333.295V3.03H324.125V5.935H327.73V8.98C327.73 13.81 326.89 19.655 323.04 22.595L325.28 25.22C327.415 23.505 328.71 20.845 329.48 17.87C330.215 20.915 331.545 23.75 333.82 25.535C336.165 23.75 337.495 20.915 338.265 17.835C339 20.845 340.295 23.505 342.465 25.22L344.74 22.595C340.82 19.655 340.015 13.915 340.015 8.98V5.935ZM346.595 0.0549992V11.185H342.08V14.125H346.595V31.695H350.2V0.0549992H346.595ZM360.347 3.17H356.742V23.82H359.367C364.127 23.82 369.027 23.47 374.382 22.42L373.962 19.445C369.167 20.425 364.617 20.775 360.347 20.81V3.17ZM384.917 12.41H380.122V0.0899988H376.517V31.695H380.122V15.385H384.917V12.41ZM397.641 1.98V4.92H408.141C407.511 9.785 403.206 13.6 395.996 15.56L397.466 18.43C406.601 15.84 411.956 10.17 411.956 1.98H397.641ZM400.581 22.805H418.291V31.625H421.896V19.9H400.581V22.805ZM418.291 0.0549992V8.105H412.166V11.08H418.291V18.535H421.896V0.0549992H418.291ZM444.888 8.035V10.975H450.488V18.92H454.093V0.0899988H450.488V8.035H444.888ZM446.708 15.07C441.983 13.425 439.288 9.505 439.288 5.55V5.13H445.868V2.225H428.963V5.13H435.648V5.585C435.648 9.925 432.813 14.125 427.913 15.875L429.768 18.745C433.513 17.415 436.173 14.615 437.573 11.15C438.903 14.195 441.423 16.68 444.923 17.905L446.708 15.07ZM443.593 28.93C439.078 28.93 436.523 27.81 436.523 25.745C436.523 23.68 439.078 22.56 443.593 22.56C448.038 22.56 450.628 23.68 450.628 25.745C450.628 27.81 448.038 28.93 443.593 28.93ZM443.593 19.76C436.978 19.76 432.918 22 432.918 25.745C432.918 29.525 436.978 31.73 443.593 31.73C450.173 31.73 454.233 29.525 454.233 25.745C454.233 22 450.173 19.76 443.593 19.76ZM469.315 21.93C466.76 21.93 464.905 20.18 464.905 17.52C464.905 14.86 466.76 13.11 469.315 13.11C471.87 13.11 473.725 14.86 473.725 17.52C473.725 20.18 471.87 21.93 469.315 21.93ZM469.315 10.135C464.765 10.135 461.475 13.215 461.475 17.52C461.475 21.86 464.765 24.905 469.315 24.905C473.83 24.905 477.155 21.86 477.155 17.52C477.155 13.215 473.83 10.135 469.315 10.135ZM471.065 0.579999H467.46V4.955H459.935V7.895H478.45V4.955H471.065V0.579999ZM489.51 12.795H484.645V0.0899988H481.005V31.73H484.645V15.805H489.51V12.795ZM514.882 18.465H518.487V0.0549992H514.882V3.59H509.142V6.495H514.882V9.645H509.142V12.585H514.882V18.465ZM510.892 14.895C506.132 13.075 503.507 8.77 503.507 4.29V1.21H499.902V4.29C499.902 9.085 497.207 13.495 492.237 15.35L494.232 18.185C497.802 16.785 500.357 14.02 501.757 10.555C503.087 13.81 505.537 16.4 508.862 17.765L510.892 14.895ZM515.267 19.655H511.732V20.74C511.732 23.19 510.472 26.165 507.637 28.09C504.872 26.34 503.647 23.47 503.647 20.74V19.655H500.147V20.74C500.147 23.855 498.047 27.215 493.987 28.65L495.772 31.31C498.712 30.19 500.707 28.125 501.827 25.64C502.842 28.23 504.732 30.435 507.672 31.59C510.577 30.365 512.432 28.09 513.447 25.57C514.532 28.125 516.597 30.225 519.642 31.31L521.427 28.65C517.332 27.32 515.267 24.065 515.267 20.74V19.655ZM527.235 18.43C532.345 17.415 536.755 14.44 538.785 10.38C540.85 14.405 545.295 17.31 550.51 18.255L551.98 15.42C545.785 14.44 540.78 10.24 540.675 5.585H550.72V2.68H526.85V5.585H536.895C536.79 10.24 531.82 14.545 525.73 15.56L527.235 18.43ZM545.68 24.975V18.115H542.04V24.975H535.565V18.115H531.96V24.975H524.505V27.915H553.135V24.975H545.68ZM561.147 20.775H564.682C564.087 15.56 570.317 13.67 570.317 8.56C570.317 4.465 567.517 2.155 563.422 2.155C560.517 2.155 558.172 3.555 556.457 5.515L558.732 7.58C559.887 6.285 561.322 5.445 562.967 5.445C565.172 5.445 566.397 6.88 566.397 8.84C566.397 12.655 560.307 14.895 561.147 20.775ZM562.967 29.455C564.472 29.455 565.662 28.3 565.662 26.655C565.662 24.975 564.472 23.785 562.967 23.785C561.427 23.785 560.272 24.975 560.272 26.655C560.272 28.3 561.427 29.455 562.967 29.455ZM49.88 51.055V82.765H53.52V51.055H49.88ZM36.685 53.4C31.995 53.4 28.565 57.74 28.565 64.53C28.565 71.39 31.995 75.695 36.685 75.695C41.41 75.695 44.84 71.39 44.84 64.53C44.84 57.74 41.41 53.4 36.685 53.4ZM36.685 56.655C39.45 56.655 41.375 59.63 41.375 64.53C41.375 69.5 39.45 72.475 36.685 72.475C33.955 72.475 32.03 69.5 32.03 64.53C32.03 59.63 33.955 56.655 36.685 56.655ZM69.3022 57.495H74.5172V54.52H60.2372V57.495H65.8022V59.77C65.8022 65.405 63.7022 71.11 59.2222 73.91L61.3922 76.57C64.4372 74.645 66.4672 71.25 67.5872 67.26C68.7072 70.935 70.6672 74.05 73.6422 75.8L75.7422 73.175C71.3322 70.62 69.3022 65.16 69.3022 59.77V57.495ZM76.8622 62.185H72.2072V65.125H76.8622V81.155H80.2572V51.685H76.8622V62.185ZM83.2322 51.055V82.66H86.6622V51.055H83.2322ZM125.881 51.055H122.241V67.4H125.881V51.055ZM107.471 55.955H111.811V63.41C110.376 63.48 108.871 63.515 107.471 63.55V55.955ZM119.511 62.78C118.146 62.955 116.746 63.06 115.311 63.165V55.955H118.111V53.085H101.136V55.955H104.006V63.585C102.711 63.62 101.451 63.62 100.296 63.62L100.681 66.56C106.176 66.525 113.421 66.35 119.686 65.335L119.511 62.78ZM108.591 79.58V76.815H125.881V68.835H104.951V71.635H122.311V74.19H104.986V82.415H126.931V79.58H108.591ZM133.753 54.415V57.355H145.023C144.393 64.635 140.473 70.2 132.178 74.19L134.103 77.06C144.953 71.81 148.733 63.83 148.733 54.415H133.753ZM154.438 51.09V82.695H158.043V51.09H154.438ZM189.54 60.155H171.445V52.21H167.84V63.095H189.54V60.155ZM171.235 72.685H167.63V81.995H189.715V79.09H171.235V72.685ZM164.13 66.875V69.78H192.83V66.875H164.13ZM225.539 59.42H211.469V56.9H225.539V59.42ZM229.109 51.615H225.539V54.24H211.469V51.615H207.899V62.15H229.109V51.615ZM211.224 77.13H229.214V69.64H207.584V72.335H225.679V74.575H207.654V82.415H230.124V79.65H211.224V77.13ZM204.189 64.39V67.26H232.819V64.39H204.189ZM240.866 65.895H248.566V54.415H237.331V57.32H245.101V62.99H237.401V75.1H239.571C243.526 75.1 247.061 74.995 251.331 74.26L251.016 71.285C247.306 71.915 244.191 72.09 240.866 72.125V65.895ZM253.536 62.15H249.966V65.125H253.536V81.12H256.896V51.79H253.536V62.15ZM259.941 51.09V82.695H263.371V51.09H259.941ZM296.023 66.525C289.793 65.405 284.718 60.54 284.718 55.5V53.12H280.903V55.5C280.903 60.505 275.828 65.37 269.598 66.525L271.138 69.5C276.283 68.45 280.728 65.16 282.793 60.82C284.858 65.16 289.303 68.45 294.448 69.5L296.023 66.525ZM268.618 75.66V78.635H297.248V75.66H268.618ZM307.921 72.58C305.751 72.58 304.421 69.745 304.421 64.74C304.421 59.735 305.751 56.935 307.921 56.935C310.091 56.935 311.421 59.735 311.421 64.74C311.421 69.745 310.091 72.58 307.921 72.58ZM318.036 63.06H314.641C314.256 57.145 311.701 53.54 307.921 53.54C303.826 53.54 301.131 57.81 301.131 64.74C301.131 71.67 303.826 75.975 307.921 75.975C311.771 75.975 314.361 72.195 314.676 66.035H318.036V81.19H321.396V51.685H318.036V63.06ZM324.371 51.09V82.66H327.801V51.09H324.371ZM349.953 63.655H345.298C346.208 60.96 346.628 58.055 346.628 54.975H334.343V57.88H343.058C342.533 64.355 339.418 69.535 332.838 73.455L334.903 76.01C339.278 73.385 342.288 70.2 344.143 66.56H349.953V81.19H353.348V51.86H349.953V63.655ZM356.568 51.09V82.695H360.033V51.09H356.568ZM385.427 63.655H377.727V56.13H385.427V63.655ZM388.962 53.26H374.157V66.525H388.962V53.26ZM381.192 77.095H397.607V74.61H381.192V72.16H397.957V69.57H377.587V82.31H398.622V79.72H381.192V77.095ZM397.747 58.055V51.09H394.142V68.03H397.747V61.03H402.227V58.055H397.747ZM427.809 51.055V59.49H420.809C421.089 57.845 421.229 56.165 421.229 54.415H406.529V57.355H417.589C416.924 64.6 413.004 70.165 405.094 74.155L407.019 76.99C414.334 73.315 418.359 68.275 420.144 62.395H427.809V68.03H419.654V70.97H427.809V82.695H431.449V51.055H427.809ZM440.336 66.56C445.551 65.79 449.821 63.2 451.746 59.7C453.671 63.2 457.976 65.79 463.191 66.56L464.486 63.725C458.466 62.92 454.021 59.455 453.811 55.78H463.366V52.875H440.091V55.78H449.716C449.506 59.455 445.061 62.92 439.041 63.725L440.336 66.56ZM466.061 68.87H437.466V71.775H449.856V82.73H453.461V71.775H466.026L466.061 68.87ZM479.358 53.995H475.858V59.7C475.858 65.09 473.688 70.76 469.208 73.42L471.413 76.15C474.458 74.295 476.523 70.97 477.643 67.085C478.728 70.62 480.618 73.7 483.488 75.45L485.518 72.65C481.283 69.99 479.358 64.635 479.358 59.525V53.995ZM486.778 62.15H482.123V65.09H486.778V81.225H490.173V51.685H486.778V62.15ZM493.218 51.09V82.695H496.648V51.09H493.218ZM512.151 69.01C513.376 69.29 514.741 69.43 516.141 69.43C517.541 69.43 518.906 69.29 520.131 68.975V75.87H512.151V69.01ZM516.141 55.745C520.901 55.745 524.226 57.845 524.226 61.17C524.226 64.53 520.901 66.63 516.141 66.63C511.346 66.63 508.021 64.53 508.021 61.17C508.021 57.845 511.346 55.745 516.141 55.745ZM523.736 75.87V67.645C526.256 66.21 527.761 63.97 527.761 61.17C527.761 56.13 522.861 52.91 516.141 52.91C509.386 52.91 504.521 56.13 504.521 61.17C504.521 63.97 506.026 66.245 508.546 67.645V75.87H501.861V78.81H530.491V75.87H523.736ZM536.928 71.775H539.623L540.183 57.775L540.323 53.61H536.263L536.368 57.775L536.928 71.775ZM538.258 80.455C539.798 80.455 540.988 79.3 540.988 77.655C540.988 75.975 539.798 74.785 538.258 74.785C536.753 74.785 535.598 75.975 535.598 77.655C535.598 79.3 536.753 80.455 538.258 80.455Z" fill="black"/>
</svg>
