<svg width="18" height="18" viewBox="0 0 18 18" fill="none" xmlns="http://www.w3.org/2000/svg">
<path d="M2.125 0.25C1.79348 0.25 1.47554 0.381696 1.24112 0.616117C1.0067 0.850537 0.875 1.16848 0.875 1.5V2.75C0.875 3.08152 1.0067 3.39946 1.24112 3.63388C1.47554 3.8683 1.79348 4 2.125 4H2.75V15.25C2.75 15.913 3.01339 16.5489 3.48223 17.0178C3.95107 17.4866 4.58696 17.75 5.25 17.75H12.75C13.413 17.75 14.0489 17.4866 14.5178 17.0178C14.9866 16.5489 15.25 15.913 15.25 15.25V4H15.875C16.2065 4 16.5245 3.8683 16.7589 3.63388C16.9933 3.39946 17.125 3.08152 17.125 2.75V1.5C17.125 1.16848 16.9933 0.850537 16.7589 0.616117C16.5245 0.381696 16.2065 0.25 15.875 0.25H11.5C11.5 -0.0815206 11.3683 -0.399463 11.1339 -0.633883C10.8995 -0.868304 10.5815 -1 10.25 -1H7.75C7.41848 -1 7.10054 -0.868304 6.86612 -0.633883C6.6317 -0.399463 6.5 -0.0815206 6.5 0.25H2.125ZM5.875 5.25C6.04076 5.25 6.19973 5.31585 6.31694 5.43306C6.43415 5.55027 6.5 5.70924 6.5 5.875V14.625C6.5 14.7908 6.43415 14.9497 6.31694 15.0669C6.19973 15.1842 6.04076 15.25 5.875 15.25C5.70924 15.25 5.55027 15.1842 5.43306 15.0669C5.31585 14.9497 5.25 14.7908 5.25 14.625V5.875C5.25 5.70924 5.31585 5.55027 5.43306 5.43306C5.55027 5.31585 5.70924 5.25 5.875 5.25ZM9 5.25C9.16576 5.25 9.32473 5.31585 9.44194 5.43306C9.55915 5.55027 9.625 5.70924 9.625 5.875V14.625C9.625 14.7908 9.55915 14.9497 9.44194 15.0669C9.32473 15.1842 9.16576 15.25 9 15.25C8.83424 15.25 8.67527 15.1842 8.55806 15.0669C8.44085 14.9497 8.375 14.7908 8.375 14.625V5.875C8.375 5.70924 8.44085 5.55027 8.55806 5.43306C8.67527 5.31585 8.83424 5.25 9 5.25ZM12.75 5.875V14.625C12.75 14.7908 12.6842 14.9497 12.5669 15.0669C12.4497 15.1842 12.2908 15.25 12.125 15.25C11.9592 15.25 11.8003 15.1842 11.6831 15.0669C11.5658 14.9497 11.5 14.7908 11.5 14.625V5.875C11.5 5.70924 11.5658 5.55027 11.6831 5.43306C11.8003 5.31585 11.9592 5.25 12.125 5.25C12.2908 5.25 12.4497 5.31585 12.5669 5.43306C12.6842 5.55027 12.75 5.70924 12.75 5.875Z" fill="#81868A"/>
</svg>
