<svg width="50" height="50" viewBox="0 0 50 50" fill="none" xmlns="http://www.w3.org/2000/svg">
<path d="M12.5 0H29.0406C29.8694 0.000176992 30.6641 0.329533 31.25 0.915625L42.8344 12.5C43.4205 13.0859 43.7498 13.8806 43.75 14.7094V28.125H6.25V6.25C6.25 4.5924 6.90848 3.00269 8.08058 1.83058C9.25268 0.65848 10.8424 0 12.5 0ZM29.6875 4.6875V10.9375C29.6875 11.7663 30.0167 12.5612 30.6028 13.1472C31.1888 13.7333 31.9837 14.0625 32.8125 14.0625H39.0625L29.6875 4.6875ZM6.25 37.5H43.75V43.75C43.75 45.4076 43.0915 46.9973 41.9194 48.1694C40.7473 49.3415 39.1576 50 37.5 50H12.5C10.8424 50 9.25268 49.3415 8.08058 48.1694C6.90848 46.9973 6.25 45.4076 6.25 43.75V37.5ZM1.5625 31.25C1.1481 31.25 0.750671 31.4146 0.457646 31.7076C0.16462 32.0007 0 32.3981 0 32.8125C0 33.2269 0.16462 33.6243 0.457646 33.9174C0.750671 34.2104 1.1481 34.375 1.5625 34.375H48.4375C48.8519 34.375 49.2493 34.2104 49.5424 33.9174C49.8354 33.6243 50 33.2269 50 32.8125C50 32.3981 49.8354 32.0007 49.5424 31.7076C49.2493 31.4146 48.8519 31.25 48.4375 31.25H1.5625Z" fill="#BDBDC7"/>
</svg>
